<svg xmlns="http://www.w3.org/2000/svg" width="12.661" height="12.661" viewBox="0 0 12.661 12.661">
  <g id="question-mark-on-a-circular-black-background" transform="translate(0 0)">
    <path id="Path_589" data-name="Path 589" d="M11.812,3.153a6.3,6.3,0,0,0-2.3-2.3A6.192,6.192,0,0,0,6.331,0,6.192,6.192,0,0,0,3.153.849a6.3,6.3,0,0,0-2.3,2.3A6.192,6.192,0,0,0,0,6.331,6.194,6.194,0,0,0,.849,9.508a6.3,6.3,0,0,0,2.3,2.3,6.193,6.193,0,0,0,3.178.849,6.193,6.193,0,0,0,3.178-.849,6.3,6.3,0,0,0,2.3-2.3,6.193,6.193,0,0,0,.849-3.178A6.194,6.194,0,0,0,11.812,3.153ZM7.386,10.287a.254.254,0,0,1-.264.264H5.539a.254.254,0,0,1-.264-.264V8.7a.254.254,0,0,1,.264-.263H7.122a.254.254,0,0,1,.264.263ZM9.393,5.416a2.179,2.179,0,0,1-.231.5,1.91,1.91,0,0,1-.367.4,3.44,3.44,0,0,1-.379.289q-.14.086-.4.235a1.388,1.388,0,0,0-.449.408.784.784,0,0,0-.177.408.254.254,0,0,1-.264.264H5.54a.254.254,0,0,1-.264-.264v-.3a1.525,1.525,0,0,1,.433-1.035A2.823,2.823,0,0,1,6.661,5.6a1.668,1.668,0,0,0,.56-.371.739.739,0,0,0,.165-.5.6.6,0,0,0-.309-.486,1.207,1.207,0,0,0-.7-.214,1.2,1.2,0,0,0-.709.2,4.108,4.108,0,0,0-.709.758.243.243,0,0,1-.206.1.233.233,0,0,1-.157-.049L3.5,4.212a.236.236,0,0,1-.066-.346A3.366,3.366,0,0,1,6.5,2.11,3.211,3.211,0,0,1,9.039,3.4,2.214,2.214,0,0,1,9.5,4.748,2.092,2.092,0,0,1,9.393,5.416Z" transform="translate(0 0)" fill="#606060"/>
  </g>
</svg>
