<svg width="669" height="26" viewBox="0 0 669 26" fill="none" xmlns="http://www.w3.org/2000/svg">
<path d="M157.8 11.4C157.8 13.08 158.344 14.472 159.416 15.544C160.504 16.616 161.864 17.16 163.512 17.16C165.144 17.16 166.504 16.616 167.592 15.528C168.68 14.424 169.224 13.048 169.224 11.4C169.224 9.72 168.68 8.328 167.592 7.256C166.52 6.184 165.16 5.64 163.512 5.64C161.864 5.64 160.488 6.2 159.416 7.304C158.344 8.408 157.8 9.768 157.8 11.4ZM159.24 11.4C159.24 10.104 159.64 9.032 160.456 8.184C161.272 7.336 162.28 6.92 163.512 6.92C164.712 6.92 165.736 7.352 166.552 8.2C167.368 9.048 167.784 10.104 167.784 11.4C167.784 12.68 167.384 13.752 166.584 14.6C165.8 15.448 164.776 15.88 163.512 15.88C162.312 15.88 161.288 15.448 160.472 14.6C159.656 13.736 159.24 12.664 159.24 11.4ZM177.663 17V9.8H171.183V17H172.463V11H176.383V17H177.663ZM185.42 11.64V17H186.7V9.8H185.42L181.26 15.16V9.8H179.98V17H181.26L185.42 11.64ZM194.563 15.032C194.019 15.656 193.331 15.96 192.499 15.96C191.763 15.96 191.139 15.72 190.643 15.256C190.147 14.792 189.907 14.168 189.907 13.4C189.907 12.664 190.147 12.056 190.627 11.576C191.123 11.08 191.699 10.84 192.371 10.84C193.203 10.84 193.891 11.096 194.435 11.592L195.027 10.584C194.403 9.96 193.459 9.64 192.195 9.64C191.155 9.64 190.275 10.008 189.587 10.728C188.899 11.448 188.547 12.344 188.547 13.4C188.547 14.536 188.899 15.448 189.603 16.136C190.323 16.824 191.251 17.16 192.403 17.16C193.539 17.16 194.579 16.728 195.171 15.96L194.563 15.032ZM197.224 11.32C197.896 10.968 198.552 10.792 199.208 10.792C200.536 10.792 200.84 11.528 200.84 13.064C200.408 12.76 199.816 12.6 199.048 12.6C197.448 12.6 196.328 13.464 196.328 14.888C196.328 16.248 197.208 17.112 198.536 17.112C199.512 17.112 200.28 16.76 200.84 16.072V17H202.056V12.584C202.056 10.616 201.272 9.64 199.288 9.64C198.392 9.64 197.592 9.864 196.888 10.296L197.224 11.32ZM198.984 15.96C198.168 15.96 197.688 15.528 197.688 14.824C197.688 14.056 198.376 13.64 199.224 13.64C199.848 13.64 200.391 13.8 200.84 14.12V15.032C200.312 15.656 199.704 15.96 198.984 15.96ZM210.759 17V9.8H209.479V12.76H205.479V9.8H204.199V17H205.479V13.96H209.479V17H210.759ZM218.514 11.64V17H219.794V9.8H218.514L214.354 15.16V9.8H213.074V17H214.354L218.514 11.64ZM227.801 15.208C227.273 15.704 226.537 15.96 225.593 15.96C224.169 15.96 223.193 15.144 223.081 13.8H228.617C228.665 13.56 228.697 13.272 228.697 12.936C228.697 11.96 228.377 11.176 227.737 10.568C227.097 9.944 226.297 9.64 225.353 9.64C224.201 9.64 223.289 9.992 222.633 10.712C221.977 11.416 221.641 12.312 221.641 13.4C221.641 14.536 221.993 15.448 222.697 16.136C223.401 16.824 224.329 17.16 225.497 17.16C226.601 17.16 227.513 16.84 228.201 16.216L227.801 15.208ZM225.289 10.84C226.521 10.84 227.305 11.56 227.369 12.76H223.001C223.145 11.624 224.009 10.84 225.289 10.84ZM239.467 11.64V17H240.747V9.8H239.467L235.307 15.16V9.8H234.027V17H235.307L239.467 11.64ZM243.282 18.76V17H249.106V18.76H250.306V15.8H249.106V9.8H244.194L244.082 11.704C243.954 13.576 243.49 15.16 242.978 15.8H242.082V18.76H243.282ZM245.394 11H247.826V15.8H244.338C244.722 15.288 245.17 13.88 245.314 12.2L245.394 11ZM257.379 15.208C256.851 15.704 256.115 15.96 255.171 15.96C253.747 15.96 252.771 15.144 252.659 13.8H258.195C258.243 13.56 258.275 13.272 258.275 12.936C258.275 11.96 257.955 11.176 257.315 10.568C256.675 9.944 255.875 9.64 254.931 9.64C253.779 9.64 252.867 9.992 252.211 10.712C251.555 11.416 251.219 12.312 251.219 13.4C251.219 14.536 251.571 15.448 252.275 16.136C252.979 16.824 253.907 17.16 255.075 17.16C256.179 17.16 257.091 16.84 257.779 16.216L257.379 15.208ZM254.867 10.84C256.099 10.84 256.883 11.56 256.947 12.76H252.579C252.723 11.624 253.587 10.84 254.867 10.84ZM265.451 11.64V17H266.731V9.8H265.451L261.291 15.16V9.8H260.011V17H261.291L265.451 11.64Z" fill="#3D4853"/>
<circle cx="331" cy="13" r="13" fill="#FE645A"/>
<path d="M333.982 17.9771V16.7771H328.814C329.214 16.4251 329.598 16.0731 329.966 15.7051C330.334 15.3371 330.83 14.7931 331.454 14.0731C332.686 12.6171 333.518 10.9371 333.518 9.48111C333.518 8.71311 333.246 8.05711 332.718 7.49711C332.19 6.93711 331.422 6.64911 330.446 6.64911C328.83 6.64911 327.502 7.65711 327.246 9.27311L328.334 9.72111C328.542 8.56911 329.374 7.92911 330.334 7.92911C331.502 7.92911 332.158 8.69711 332.158 9.73711C332.158 10.7771 331.55 12.0411 330.35 13.5451C329.726 14.3131 328.67 15.4491 327.15 16.9371V17.9771H333.982Z" fill="white"/>
<path d="M357.328 17.128V15.656H357.376C358.976 15.656 360.256 15.272 361.232 14.488C362.208 13.704 362.704 12.632 362.704 11.24C362.704 9.864 362.224 8.792 361.248 8.008C360.272 7.224 358.976 6.84 357.328 6.824V5.672H355.968V6.824C354.336 6.84 353.04 7.224 352.08 8.008C351.12 8.776 350.64 9.848 350.64 11.24C350.64 12.632 351.12 13.704 352.08 14.488C353.056 15.272 354.336 15.656 355.952 15.656H355.968V17.128H357.328ZM357.344 8.088C359.824 8.088 361.264 9.256 361.264 11.24C361.264 13.304 359.808 14.408 357.36 14.408H357.328V8.088H357.344ZM352.08 11.24C352.08 9.272 353.536 8.088 355.968 8.088V14.408H355.952C353.568 14.408 352.08 13.288 352.08 11.24ZM364.931 16.104C365.651 16.808 366.579 17.16 367.715 17.16C368.851 17.16 369.779 16.808 370.483 16.104C371.203 15.384 371.555 14.488 371.555 13.4C371.555 12.312 371.203 11.416 370.483 10.712C369.779 9.992 368.851 9.64 367.715 9.64C366.579 9.64 365.651 9.992 364.931 10.712C364.227 11.416 363.875 12.312 363.875 13.4C363.875 14.488 364.227 15.384 364.931 16.104ZM365.235 13.4C365.235 12.648 365.475 12.024 365.939 11.56C366.403 11.08 366.995 10.84 367.715 10.84C368.435 10.84 369.027 11.08 369.491 11.56C369.955 12.04 370.195 12.648 370.195 13.4C370.195 14.92 369.171 15.96 367.715 15.96C366.995 15.96 366.387 15.72 365.923 15.24C365.459 14.76 365.235 14.152 365.235 13.4ZM374.682 20.2V16.664C375.178 17 375.866 17.16 376.714 17.16C377.818 17.16 378.73 16.792 379.418 16.056C380.106 15.32 380.458 14.392 380.458 13.288C380.458 12.216 380.154 11.336 379.546 10.664C378.954 9.976 378.138 9.64 377.13 9.64C376.154 9.64 375.194 10.056 374.682 10.648V9.8H373.402V20.2H374.682ZM376.762 10.84C378.218 10.84 379.098 11.848 379.098 13.336C379.098 14.872 378.122 15.96 376.602 15.96C375.882 15.96 375.242 15.768 374.682 15.4V11.832C375.21 11.176 375.914 10.84 376.762 10.84ZM383.573 17V11.752L386.165 15.096H386.213L388.709 11.752V17H389.989V9.8H388.853L386.229 13.368L383.461 9.8H382.293V17H383.573ZM397.396 9.8L395.732 14.36C395.604 14.744 395.492 15.112 395.396 15.464C395.156 14.84 395.012 14.472 394.964 14.376L392.852 9.8H391.316L394.772 17L394.612 17.384C394.116 18.536 393.668 19.016 393.076 19.016C392.884 19.016 392.612 18.936 392.276 18.776L391.86 19.752C392.308 20.056 392.756 20.2 393.22 20.2C393.748 20.2 394.212 19.976 394.612 19.528C395.012 19.096 395.46 18.248 395.972 17L398.852 9.8H397.396ZM405.86 17V9.8H400.852L400.724 12.04C400.548 15.368 399.508 15.896 398.98 15.848L399.076 17.096C400.58 17.096 401.636 16.392 401.972 12.296L402.052 11.08H404.58V17H405.86ZM413.608 11.64V17H414.888V9.8H413.608L409.448 15.16V9.8H408.168V17H409.448L413.608 11.64ZM418.495 20.2V16.664C418.991 17 419.679 17.16 420.527 17.16C421.631 17.16 422.543 16.792 423.231 16.056C423.919 15.32 424.271 14.392 424.271 13.288C424.271 12.216 423.967 11.336 423.359 10.664C422.767 9.976 421.951 9.64 420.943 9.64C419.967 9.64 419.007 10.056 418.495 10.648V9.8H417.215V20.2H418.495ZM420.575 10.84C422.031 10.84 422.911 11.848 422.911 13.336C422.911 14.872 421.935 15.96 420.415 15.96C419.695 15.96 419.055 15.768 418.495 15.4V11.832C419.023 11.176 419.727 10.84 420.575 10.84ZM426.681 16.104C427.401 16.808 428.329 17.16 429.465 17.16C430.601 17.16 431.529 16.808 432.233 16.104C432.953 15.384 433.305 14.488 433.305 13.4C433.305 12.312 432.953 11.416 432.233 10.712C431.529 9.992 430.601 9.64 429.465 9.64C428.329 9.64 427.401 9.992 426.681 10.712C425.977 11.416 425.625 12.312 425.625 13.4C425.625 14.488 425.977 15.384 426.681 16.104ZM426.985 13.4C426.985 12.648 427.225 12.024 427.689 11.56C428.153 11.08 428.745 10.84 429.465 10.84C430.185 10.84 430.777 11.08 431.241 11.56C431.705 12.04 431.945 12.648 431.945 13.4C431.945 14.92 430.921 15.96 429.465 15.96C428.745 15.96 428.137 15.72 427.673 15.24C427.209 14.76 426.985 14.152 426.985 13.4ZM435.152 17C435.36 17 435.76 17.016 436.384 17.032C437.008 17.048 437.472 17.064 437.792 17.064C440 17.064 441.104 16.36 441.104 14.968C441.104 14.04 440.544 13.48 439.424 13.272V13.24C440.272 13.112 440.864 12.44 440.864 11.592C440.864 10.36 439.824 9.736 437.76 9.736C437.376 9.736 436.88 9.752 436.288 9.768C435.696 9.784 435.328 9.8 435.152 9.8V17ZM437.968 13.768C439.152 13.768 439.744 14.136 439.744 14.872C439.744 15.64 439.136 16.024 437.904 16.024C437.696 16.024 437.2 16.008 436.432 15.976V13.768H437.968ZM437.856 10.776C438.96 10.776 439.504 11.128 439.504 11.848C439.504 12.536 438.928 12.968 438.048 12.968H436.432V10.824C437.072 10.792 437.552 10.776 437.856 10.776ZM447.682 9.8L444.642 13.32L447.89 17H449.666L446.21 13.24L449.362 9.8H447.682ZM444.338 17V9.8H443.058V17H444.338ZM451.411 11.32C452.083 10.968 452.739 10.792 453.395 10.792C454.723 10.792 455.027 11.528 455.027 13.064C454.595 12.76 454.003 12.6 453.235 12.6C451.635 12.6 450.515 13.464 450.515 14.888C450.515 16.248 451.395 17.112 452.723 17.112C453.699 17.112 454.467 16.76 455.027 16.072V17H456.243V12.584C456.243 10.616 455.459 9.64 453.475 9.64C452.579 9.64 451.779 9.864 451.075 10.296L451.411 11.32ZM453.171 15.96C452.355 15.96 451.875 15.528 451.875 14.824C451.875 14.056 452.563 13.64 453.411 13.64C454.035 13.64 454.579 13.8 455.027 14.12V15.032C454.499 15.656 453.891 15.96 453.171 15.96ZM467.42 11.64V17H468.7V9.8H467.42L463.26 15.16V9.8H461.98V17H463.26L467.42 11.64ZM471.235 18.76V17H477.059V18.76H478.259V15.8H477.059V9.8H472.147L472.035 11.704C471.907 13.576 471.443 15.16 470.931 15.8H470.035V18.76H471.235ZM473.347 11H475.779V15.8H472.291C472.675 15.288 473.123 13.88 473.267 12.2L473.347 11ZM485.332 15.208C484.804 15.704 484.068 15.96 483.124 15.96C481.7 15.96 480.724 15.144 480.612 13.8H486.148C486.196 13.56 486.228 13.272 486.228 12.936C486.228 11.96 485.908 11.176 485.268 10.568C484.628 9.944 483.828 9.64 482.884 9.64C481.732 9.64 480.82 9.992 480.164 10.712C479.508 11.416 479.172 12.312 479.172 13.4C479.172 14.536 479.524 15.448 480.228 16.136C480.932 16.824 481.86 17.16 483.028 17.16C484.132 17.16 485.044 16.84 485.732 16.216L485.332 15.208ZM482.82 10.84C484.052 10.84 484.836 11.56 484.9 12.76H480.532C480.676 11.624 481.54 10.84 482.82 10.84ZM493.405 11.64V17H494.685V9.8H493.405L489.245 15.16V9.8H487.965V17H489.245L493.405 11.64Z" fill="#3D4853"/>
<path d="M42.56 17V5.8H41.2V10.648H35.04V5.8H33.68V17H35.04V11.928H41.2V17H42.56ZM45.7704 11.32C46.4424 10.968 47.0984 10.792 47.7544 10.792C49.0824 10.792 49.3864 11.528 49.3864 13.064C48.9544 12.76 48.3624 12.6 47.5944 12.6C45.9944 12.6 44.8744 13.464 44.8744 14.888C44.8744 16.248 45.7544 17.112 47.0824 17.112C48.0584 17.112 48.8264 16.76 49.3864 16.072V17H50.6024V12.584C50.6024 10.616 49.8184 9.64 47.8344 9.64C46.9384 9.64 46.1384 9.864 45.4344 10.296L45.7704 11.32ZM47.5304 15.96C46.7144 15.96 46.2344 15.528 46.2344 14.824C46.2344 14.056 46.9224 13.64 47.7704 13.64C48.3944 13.64 48.9384 13.8 49.3864 14.12V15.032C48.8584 15.656 48.2504 15.96 47.5304 15.96ZM55.1298 17.16C56.9378 17.16 58.1858 16.328 58.1858 15C58.1858 14.12 57.6418 13.416 56.6818 13.304V13.272C57.5298 12.968 57.9458 12.408 57.9458 11.576C57.9458 10.376 56.9698 9.64 55.2418 9.64C54.0898 9.64 52.9698 10.008 52.3938 10.6L52.8898 11.592C53.5618 11.064 54.2818 10.792 55.0498 10.792C55.9938 10.792 56.5858 11.192 56.5858 11.832C56.5858 12.408 56.0578 12.856 55.3378 12.856H54.2018V13.896H55.4178C56.2977 13.896 56.8258 14.232 56.8258 14.824C56.8258 15.528 56.0418 16.008 54.9378 16.008C54.2818 16.008 53.3858 15.688 52.8098 15.224L52.1538 16.184C52.3938 16.456 52.8098 16.696 53.4018 16.888C53.9938 17.064 54.5698 17.16 55.1298 17.16ZM60.5204 11.32C61.1924 10.968 61.8484 10.792 62.5044 10.792C63.8324 10.792 64.1364 11.528 64.1364 13.064C63.7044 12.76 63.1124 12.6 62.3444 12.6C60.7444 12.6 59.6244 13.464 59.6244 14.888C59.6244 16.248 60.5044 17.112 61.8324 17.112C62.8084 17.112 63.5764 16.76 64.1364 16.072V17H65.3524V12.584C65.3524 10.616 64.5684 9.64 62.5844 9.64C61.6884 9.64 60.8884 9.864 60.1844 10.296L60.5204 11.32ZM62.2804 15.96C61.4644 15.96 60.9844 15.528 60.9844 14.824C60.9844 14.056 61.6724 13.64 62.5204 13.64C63.1444 13.64 63.6884 13.8 64.1364 14.12V15.032C63.6084 15.656 63.0004 15.96 62.2804 15.96ZM67.7038 18.76V17H73.5278V18.76H74.7278V15.8H73.5278V9.8H68.6158L68.5038 11.704C68.3758 13.576 67.9118 15.16 67.3997 15.8H66.5038V18.76H67.7038ZM69.8158 11H72.2478V15.8H68.7598C69.1438 15.288 69.5918 13.88 69.7358 12.2L69.8158 11Z" fill="#3D4853"/>
<circle cx="559" cy="13" r="13" fill="#DAE3EF"/>
<path d="M558.343 18.1371C559.367 18.1371 560.215 17.8491 560.871 17.2571C561.527 16.6651 561.863 15.8651 561.863 14.8891C561.863 13.5291 561.031 12.3931 559.687 12.1851V12.1371C560.823 11.6731 561.431 10.6811 561.431 9.44911C561.431 7.70511 560.215 6.61711 558.343 6.61711C556.887 6.61711 555.735 7.27311 555.223 8.40911L555.943 9.28911C556.471 8.36111 557.239 7.89711 558.247 7.89711C559.383 7.89711 560.071 8.56911 560.071 9.67311C560.071 10.2331 559.879 10.6971 559.479 11.0651C559.095 11.4331 558.647 11.6091 558.135 11.6091H557.335V12.8891H558.215C559.575 12.8891 560.503 13.6411 560.503 14.8411C560.503 16.0091 559.655 16.8571 558.295 16.8571C557.223 16.8571 556.215 16.3131 555.687 15.3051L554.951 16.2171C555.527 17.4491 556.759 18.1371 558.343 18.1371Z" fill="white"/>
<path d="M588.48 17V5.8H579.68V17H581.04V7.08H587.12V17H588.48ZM591.884 16.104C592.604 16.808 593.532 17.16 594.668 17.16C595.804 17.16 596.732 16.808 597.436 16.104C598.156 15.384 598.508 14.488 598.508 13.4C598.508 12.312 598.156 11.416 597.436 10.712C596.732 9.992 595.804 9.64 594.668 9.64C593.532 9.64 592.604 9.992 591.884 10.712C591.18 11.416 590.828 12.312 590.828 13.4C590.828 14.488 591.18 15.384 591.884 16.104ZM592.188 13.4C592.188 12.648 592.428 12.024 592.892 11.56C593.356 11.08 593.948 10.84 594.668 10.84C595.388 10.84 595.98 11.08 596.444 11.56C596.908 12.04 597.148 12.648 597.148 13.4C597.148 14.92 596.124 15.96 594.668 15.96C593.948 15.96 593.34 15.72 592.876 15.24C592.412 14.76 592.188 14.152 592.188 13.4ZM600.282 18.76V17H606.106V18.76H607.306V15.8H606.106V9.8H601.194L601.082 11.704C600.954 13.576 600.49 15.16 599.978 15.8H599.082V18.76H600.282ZM602.394 11H604.826V15.8H601.338C601.722 15.288 602.17 13.88 602.314 12.2L602.394 11ZM609.083 11.32C609.755 10.968 610.411 10.792 611.067 10.792C612.395 10.792 612.699 11.528 612.699 13.064C612.267 12.76 611.675 12.6 610.907 12.6C609.307 12.6 608.187 13.464 608.187 14.888C608.187 16.248 609.067 17.112 610.395 17.112C611.371 17.112 612.139 16.76 612.699 16.072V17H613.915V12.584C613.915 10.616 613.131 9.64 611.147 9.64C610.251 9.64 609.451 9.864 608.747 10.296L609.083 11.32ZM610.843 15.96C610.027 15.96 609.547 15.528 609.547 14.824C609.547 14.056 610.235 13.64 611.083 13.64C611.707 13.64 612.251 13.8 612.699 14.12V15.032C612.171 15.656 611.563 15.96 610.843 15.96ZM620.186 9.8V13.08C619.754 13.384 619.21 13.528 618.538 13.528C617.498 13.528 616.986 12.968 616.986 11.832V9.8H615.626V11.976C615.626 13.816 616.474 14.728 618.186 14.728C618.97 14.728 619.626 14.552 620.186 14.2V17H621.466V9.8H620.186ZM624.161 11.32C624.833 10.968 625.489 10.792 626.145 10.792C627.473 10.792 627.777 11.528 627.777 13.064C627.345 12.76 626.753 12.6 625.985 12.6C624.385 12.6 623.265 13.464 623.265 14.888C623.265 16.248 624.145 17.112 625.473 17.112C626.449 17.112 627.217 16.76 627.777 16.072V17H628.993V12.584C628.993 10.616 628.209 9.64 626.225 9.64C625.329 9.64 624.529 9.864 623.825 10.296L624.161 11.32ZM625.921 15.96C625.105 15.96 624.625 15.528 624.625 14.824C624.625 14.056 625.313 13.64 626.161 13.64C626.785 13.64 627.329 13.8 627.777 14.12V15.032C627.249 15.656 626.641 15.96 625.921 15.96ZM640.17 11.64V17H641.45V9.8H640.17L636.01 15.16V9.8H634.73V17H636.01L640.17 11.64ZM643.985 18.76V17H649.809V18.76H651.009V15.8H649.809V9.8H644.897L644.785 11.704C644.657 13.576 644.193 15.16 643.681 15.8H642.785V18.76H643.985ZM646.097 11H648.529V15.8H645.041C645.425 15.288 645.873 13.88 646.017 12.2L646.097 11ZM658.082 15.208C657.554 15.704 656.818 15.96 655.874 15.96C654.45 15.96 653.474 15.144 653.362 13.8H658.898C658.946 13.56 658.978 13.272 658.978 12.936C658.978 11.96 658.658 11.176 658.018 10.568C657.378 9.944 656.578 9.64 655.634 9.64C654.482 9.64 653.57 9.992 652.914 10.712C652.258 11.416 651.922 12.312 651.922 13.4C651.922 14.536 652.274 15.448 652.978 16.136C653.682 16.824 654.61 17.16 655.778 17.16C656.882 17.16 657.794 16.84 658.482 16.216L658.082 15.208ZM655.57 10.84C656.802 10.84 657.586 11.56 657.65 12.76H653.282C653.426 11.624 654.29 10.84 655.57 10.84ZM666.155 11.64V17H667.435V9.8H666.155L661.995 15.16V9.8H660.715V17H661.995L666.155 11.64Z" fill="#3D4853" fill-opacity="0.6"/>
<line x1="278" y1="12.5" x2="308" y2="12.5" stroke="#D6DEE8"/>
<line x1="85" y1="12.5" x2="115" y2="12.5" stroke="#D6DEE8"/>
<line x1="506" y1="12.5" x2="536" y2="12.5" stroke="#D6DEE8"/>
<path d="M138 0C130.824 0 125 5.824 125 13C125 20.176 130.824 26 138 26C145.176 26 151 20.176 151 13C151 5.824 145.176 0 138 0ZM135.4 19.5L128.9 13L130.733 11.167L135.4 15.821L145.267 5.954L147.1 7.8L135.4 19.5Z" fill="url(#paint0_linear)"/>
<circle cx="13" cy="13" r="13" fill="url(#paint1_linear)"/>
<path d="M16.41 17.59L11.83 13L16.41 8.41L15 7L9 13L15 19L16.41 17.59Z" fill="white"/>
<defs>
<linearGradient id="paint0_linear" x1="138" y1="1.93715e-07" x2="131.5" y2="30.5" gradientUnits="userSpaceOnUse">
<stop stop-color="#00A460"/>
<stop offset="1" stop-color="#87C3AA"/>
</linearGradient>
<linearGradient id="paint1_linear" x1="13" y1="0" x2="-5.13092" y2="9.12886" gradientUnits="userSpaceOnUse">
<stop stop-color="#6F27E2"/>
<stop offset="1" stop-color="#8D33C6"/>
</linearGradient>
</defs>
</svg>
