<svg width="639" height="26" viewBox="0 0 639 26" fill="none" xmlns="http://www.w3.org/2000/svg">
<circle cx="128" cy="13" r="13" fill="#FE645A"/>
<path d="M125.849 9.83311L127.481 8.55311V17.9771H128.761V6.71311H127.865L125.177 8.79311L125.849 9.83311Z" fill="white"/>
<path d="M147.8 11.4C147.8 13.08 148.344 14.472 149.416 15.544C150.504 16.616 151.864 17.16 153.512 17.16C155.144 17.16 156.504 16.616 157.592 15.528C158.68 14.424 159.224 13.048 159.224 11.4C159.224 9.72 158.68 8.328 157.592 7.256C156.52 6.184 155.16 5.64 153.512 5.64C151.864 5.64 150.488 6.2 149.416 7.304C148.344 8.408 147.8 9.768 147.8 11.4ZM149.24 11.4C149.24 10.104 149.64 9.032 150.456 8.184C151.272 7.336 152.28 6.92 153.512 6.92C154.712 6.92 155.736 7.352 156.552 8.2C157.368 9.048 157.784 10.104 157.784 11.4C157.784 12.68 157.384 13.752 156.584 14.6C155.8 15.448 154.776 15.88 153.512 15.88C152.312 15.88 151.288 15.448 150.472 14.6C149.656 13.736 149.24 12.664 149.24 11.4ZM167.663 17V9.8H161.183V17H162.463V11H166.383V17H167.663ZM175.42 11.64V17H176.7V9.8H175.42L171.26 15.16V9.8H169.98V17H171.26L175.42 11.64ZM184.563 15.032C184.019 15.656 183.331 15.96 182.499 15.96C181.763 15.96 181.139 15.72 180.643 15.256C180.147 14.792 179.907 14.168 179.907 13.4C179.907 12.664 180.147 12.056 180.627 11.576C181.123 11.08 181.699 10.84 182.371 10.84C183.203 10.84 183.891 11.096 184.435 11.592L185.027 10.584C184.403 9.96 183.459 9.64 182.195 9.64C181.155 9.64 180.275 10.008 179.587 10.728C178.899 11.448 178.547 12.344 178.547 13.4C178.547 14.536 178.899 15.448 179.603 16.136C180.323 16.824 181.251 17.16 182.403 17.16C183.539 17.16 184.579 16.728 185.171 15.96L184.563 15.032ZM187.224 11.32C187.896 10.968 188.552 10.792 189.208 10.792C190.536 10.792 190.84 11.528 190.84 13.064C190.408 12.76 189.816 12.6 189.048 12.6C187.448 12.6 186.328 13.464 186.328 14.888C186.328 16.248 187.208 17.112 188.536 17.112C189.512 17.112 190.28 16.76 190.84 16.072V17H192.056V12.584C192.056 10.616 191.272 9.64 189.288 9.64C188.392 9.64 187.592 9.864 186.888 10.296L187.224 11.32ZM188.984 15.96C188.168 15.96 187.688 15.528 187.688 14.824C187.688 14.056 188.376 13.64 189.224 13.64C189.848 13.64 190.391 13.8 190.84 14.12V15.032C190.312 15.656 189.704 15.96 188.984 15.96ZM200.759 17V9.8H199.479V12.76H195.479V9.8H194.199V17H195.479V13.96H199.479V17H200.759ZM208.514 11.64V17H209.794V9.8H208.514L204.354 15.16V9.8H203.074V17H204.354L208.514 11.64ZM217.801 15.208C217.273 15.704 216.537 15.96 215.593 15.96C214.169 15.96 213.193 15.144 213.081 13.8H218.617C218.665 13.56 218.697 13.272 218.697 12.936C218.697 11.96 218.377 11.176 217.737 10.568C217.097 9.944 216.297 9.64 215.353 9.64C214.201 9.64 213.289 9.992 212.633 10.712C211.977 11.416 211.641 12.312 211.641 13.4C211.641 14.536 211.993 15.448 212.697 16.136C213.401 16.824 214.329 17.16 215.497 17.16C216.601 17.16 217.513 16.84 218.201 16.216L217.801 15.208ZM215.289 10.84C216.521 10.84 217.305 11.56 217.369 12.76H213.001C213.145 11.624 214.009 10.84 215.289 10.84ZM229.467 11.64V17H230.747V9.8H229.467L225.307 15.16V9.8H224.027V17H225.307L229.467 11.64ZM233.282 18.76V17H239.106V18.76H240.306V15.8H239.106V9.8H234.194L234.082 11.704C233.954 13.576 233.49 15.16 232.978 15.8H232.082V18.76H233.282ZM235.394 11H237.826V15.8H234.338C234.722 15.288 235.17 13.88 235.314 12.2L235.394 11ZM247.379 15.208C246.851 15.704 246.115 15.96 245.171 15.96C243.747 15.96 242.771 15.144 242.659 13.8H248.195C248.243 13.56 248.275 13.272 248.275 12.936C248.275 11.96 247.955 11.176 247.315 10.568C246.675 9.944 245.875 9.64 244.931 9.64C243.779 9.64 242.867 9.992 242.211 10.712C241.555 11.416 241.219 12.312 241.219 13.4C241.219 14.536 241.571 15.448 242.275 16.136C242.979 16.824 243.907 17.16 245.075 17.16C246.179 17.16 247.091 16.84 247.779 16.216L247.379 15.208ZM244.867 10.84C246.099 10.84 246.883 11.56 246.947 12.76H242.579C242.723 11.624 243.587 10.84 244.867 10.84ZM255.451 11.64V17H256.731V9.8H255.451L251.291 15.16V9.8H250.011V17H251.291L255.451 11.64Z" fill="#3D4853"/>
<circle cx="311" cy="13" r="13" fill="#DAE3EF"/>
<path d="M313.982 17.9771V16.7771H308.814C309.214 16.4251 309.598 16.0731 309.966 15.7051C310.334 15.3371 310.83 14.7931 311.454 14.0731C312.686 12.6171 313.518 10.9371 313.518 9.48111C313.518 8.71311 313.246 8.05711 312.718 7.49711C312.19 6.93711 311.422 6.64911 310.446 6.64911C308.83 6.64911 307.502 7.65711 307.246 9.27311L308.334 9.72111C308.542 8.56911 309.374 7.92911 310.334 7.92911C311.502 7.92911 312.158 8.69711 312.158 9.73711C312.158 10.7771 311.55 12.0411 310.35 13.5451C309.726 14.3131 308.67 15.4491 307.15 16.9371V17.9771H313.982Z" fill="white"/>
<path d="M337.328 17.128V15.656H337.376C338.976 15.656 340.256 15.272 341.232 14.488C342.208 13.704 342.704 12.632 342.704 11.24C342.704 9.864 342.224 8.792 341.248 8.008C340.272 7.224 338.976 6.84 337.328 6.824V5.672H335.968V6.824C334.336 6.84 333.04 7.224 332.08 8.008C331.12 8.776 330.64 9.848 330.64 11.24C330.64 12.632 331.12 13.704 332.08 14.488C333.056 15.272 334.336 15.656 335.952 15.656H335.968V17.128H337.328ZM337.344 8.088C339.824 8.088 341.264 9.256 341.264 11.24C341.264 13.304 339.808 14.408 337.36 14.408H337.328V8.088H337.344ZM332.08 11.24C332.08 9.272 333.536 8.088 335.968 8.088V14.408H335.952C333.568 14.408 332.08 13.288 332.08 11.24ZM344.931 16.104C345.651 16.808 346.579 17.16 347.715 17.16C348.851 17.16 349.779 16.808 350.483 16.104C351.203 15.384 351.555 14.488 351.555 13.4C351.555 12.312 351.203 11.416 350.483 10.712C349.779 9.992 348.851 9.64 347.715 9.64C346.579 9.64 345.651 9.992 344.931 10.712C344.227 11.416 343.875 12.312 343.875 13.4C343.875 14.488 344.227 15.384 344.931 16.104ZM345.235 13.4C345.235 12.648 345.475 12.024 345.939 11.56C346.403 11.08 346.995 10.84 347.715 10.84C348.435 10.84 349.027 11.08 349.491 11.56C349.955 12.04 350.195 12.648 350.195 13.4C350.195 14.92 349.171 15.96 347.715 15.96C346.995 15.96 346.387 15.72 345.923 15.24C345.459 14.76 345.235 14.152 345.235 13.4ZM354.682 20.2V16.664C355.178 17 355.866 17.16 356.714 17.16C357.818 17.16 358.73 16.792 359.418 16.056C360.106 15.32 360.458 14.392 360.458 13.288C360.458 12.216 360.154 11.336 359.546 10.664C358.954 9.976 358.138 9.64 357.13 9.64C356.154 9.64 355.194 10.056 354.682 10.648V9.8H353.402V20.2H354.682ZM356.762 10.84C358.218 10.84 359.098 11.848 359.098 13.336C359.098 14.872 358.122 15.96 356.602 15.96C355.882 15.96 355.242 15.768 354.682 15.4V11.832C355.21 11.176 355.914 10.84 356.762 10.84ZM363.573 17V11.752L366.165 15.096H366.213L368.709 11.752V17H369.989V9.8H368.853L366.229 13.368L363.461 9.8H362.293V17H363.573ZM377.396 9.8L375.732 14.36C375.604 14.744 375.492 15.112 375.396 15.464C375.156 14.84 375.012 14.472 374.964 14.376L372.852 9.8H371.316L374.772 17L374.612 17.384C374.116 18.536 373.668 19.016 373.076 19.016C372.884 19.016 372.612 18.936 372.276 18.776L371.86 19.752C372.308 20.056 372.756 20.2 373.22 20.2C373.748 20.2 374.212 19.976 374.612 19.528C375.012 19.096 375.46 18.248 375.972 17L378.852 9.8H377.396ZM385.86 17V9.8H380.852L380.724 12.04C380.548 15.368 379.508 15.896 378.98 15.848L379.076 17.096C380.58 17.096 381.636 16.392 381.972 12.296L382.052 11.08H384.58V17H385.86ZM393.608 11.64V17H394.888V9.8H393.608L389.448 15.16V9.8H388.168V17H389.448L393.608 11.64ZM398.495 20.2V16.664C398.991 17 399.679 17.16 400.527 17.16C401.631 17.16 402.543 16.792 403.231 16.056C403.919 15.32 404.271 14.392 404.271 13.288C404.271 12.216 403.967 11.336 403.359 10.664C402.767 9.976 401.951 9.64 400.943 9.64C399.967 9.64 399.007 10.056 398.495 10.648V9.8H397.215V20.2H398.495ZM400.575 10.84C402.031 10.84 402.911 11.848 402.911 13.336C402.911 14.872 401.935 15.96 400.415 15.96C399.695 15.96 399.055 15.768 398.495 15.4V11.832C399.023 11.176 399.727 10.84 400.575 10.84ZM406.681 16.104C407.401 16.808 408.329 17.16 409.465 17.16C410.601 17.16 411.529 16.808 412.233 16.104C412.953 15.384 413.305 14.488 413.305 13.4C413.305 12.312 412.953 11.416 412.233 10.712C411.529 9.992 410.601 9.64 409.465 9.64C408.329 9.64 407.401 9.992 406.681 10.712C405.977 11.416 405.625 12.312 405.625 13.4C405.625 14.488 405.977 15.384 406.681 16.104ZM406.985 13.4C406.985 12.648 407.225 12.024 407.689 11.56C408.153 11.08 408.745 10.84 409.465 10.84C410.185 10.84 410.777 11.08 411.241 11.56C411.705 12.04 411.945 12.648 411.945 13.4C411.945 14.92 410.921 15.96 409.465 15.96C408.745 15.96 408.137 15.72 407.673 15.24C407.209 14.76 406.985 14.152 406.985 13.4ZM415.152 17C415.36 17 415.76 17.016 416.384 17.032C417.008 17.048 417.472 17.064 417.792 17.064C420 17.064 421.104 16.36 421.104 14.968C421.104 14.04 420.544 13.48 419.424 13.272V13.24C420.272 13.112 420.864 12.44 420.864 11.592C420.864 10.36 419.824 9.736 417.76 9.736C417.376 9.736 416.88 9.752 416.288 9.768C415.696 9.784 415.328 9.8 415.152 9.8V17ZM417.968 13.768C419.152 13.768 419.744 14.136 419.744 14.872C419.744 15.64 419.136 16.024 417.904 16.024C417.696 16.024 417.2 16.008 416.432 15.976V13.768H417.968ZM417.856 10.776C418.96 10.776 419.504 11.128 419.504 11.848C419.504 12.536 418.928 12.968 418.048 12.968H416.432V10.824C417.072 10.792 417.552 10.776 417.856 10.776ZM427.682 9.8L424.642 13.32L427.89 17H429.666L426.21 13.24L429.362 9.8H427.682ZM424.338 17V9.8H423.058V17H424.338ZM431.411 11.32C432.083 10.968 432.739 10.792 433.395 10.792C434.723 10.792 435.027 11.528 435.027 13.064C434.595 12.76 434.003 12.6 433.235 12.6C431.635 12.6 430.515 13.464 430.515 14.888C430.515 16.248 431.395 17.112 432.723 17.112C433.699 17.112 434.467 16.76 435.027 16.072V17H436.243V12.584C436.243 10.616 435.459 9.64 433.475 9.64C432.579 9.64 431.779 9.864 431.075 10.296L431.411 11.32ZM433.171 15.96C432.355 15.96 431.875 15.528 431.875 14.824C431.875 14.056 432.563 13.64 433.411 13.64C434.035 13.64 434.579 13.8 435.027 14.12V15.032C434.499 15.656 433.891 15.96 433.171 15.96ZM447.42 11.64V17H448.7V9.8H447.42L443.26 15.16V9.8H441.98V17H443.26L447.42 11.64ZM451.235 18.76V17H457.059V18.76H458.259V15.8H457.059V9.8H452.147L452.035 11.704C451.907 13.576 451.443 15.16 450.931 15.8H450.035V18.76H451.235ZM453.347 11H455.779V15.8H452.291C452.675 15.288 453.123 13.88 453.267 12.2L453.347 11ZM465.332 15.208C464.804 15.704 464.068 15.96 463.124 15.96C461.7 15.96 460.724 15.144 460.612 13.8H466.148C466.196 13.56 466.228 13.272 466.228 12.936C466.228 11.96 465.908 11.176 465.268 10.568C464.628 9.944 463.828 9.64 462.884 9.64C461.732 9.64 460.82 9.992 460.164 10.712C459.508 11.416 459.172 12.312 459.172 13.4C459.172 14.536 459.524 15.448 460.228 16.136C460.932 16.824 461.86 17.16 463.028 17.16C464.132 17.16 465.044 16.84 465.732 16.216L465.332 15.208ZM462.82 10.84C464.052 10.84 464.836 11.56 464.9 12.76H460.532C460.676 11.624 461.54 10.84 462.82 10.84ZM473.405 11.64V17H474.685V9.8H473.405L469.245 15.16V9.8H467.965V17H469.245L473.405 11.64Z" fill="#3D4853" fill-opacity="0.6"/>
<circle cx="529" cy="13" r="13" fill="#DAE3EF"/>
<path d="M528.343 18.1371C529.367 18.1371 530.215 17.8491 530.871 17.2571C531.527 16.6651 531.863 15.8651 531.863 14.8891C531.863 13.5291 531.031 12.3931 529.687 12.1851V12.1371C530.823 11.6731 531.431 10.6811 531.431 9.44911C531.431 7.70511 530.215 6.61711 528.343 6.61711C526.887 6.61711 525.735 7.27311 525.223 8.40911L525.943 9.28911C526.471 8.36111 527.239 7.89711 528.247 7.89711C529.383 7.89711 530.071 8.56911 530.071 9.67311C530.071 10.2331 529.879 10.6971 529.479 11.0651C529.095 11.4331 528.647 11.6091 528.135 11.6091H527.335V12.8891H528.215C529.575 12.8891 530.503 13.6411 530.503 14.8411C530.503 16.0091 529.655 16.8571 528.295 16.8571C527.223 16.8571 526.215 16.3131 525.687 15.3051L524.951 16.2171C525.527 17.4491 526.759 18.1371 528.343 18.1371Z" fill="white"/>
<path d="M558.48 17V5.8H549.68V17H551.04V7.08H557.12V17H558.48ZM561.884 16.104C562.604 16.808 563.532 17.16 564.668 17.16C565.804 17.16 566.732 16.808 567.436 16.104C568.156 15.384 568.508 14.488 568.508 13.4C568.508 12.312 568.156 11.416 567.436 10.712C566.732 9.992 565.804 9.64 564.668 9.64C563.532 9.64 562.604 9.992 561.884 10.712C561.18 11.416 560.828 12.312 560.828 13.4C560.828 14.488 561.18 15.384 561.884 16.104ZM562.188 13.4C562.188 12.648 562.428 12.024 562.892 11.56C563.356 11.08 563.948 10.84 564.668 10.84C565.388 10.84 565.98 11.08 566.444 11.56C566.908 12.04 567.148 12.648 567.148 13.4C567.148 14.92 566.124 15.96 564.668 15.96C563.948 15.96 563.34 15.72 562.876 15.24C562.412 14.76 562.188 14.152 562.188 13.4ZM570.282 18.76V17H576.106V18.76H577.306V15.8H576.106V9.8H571.194L571.082 11.704C570.954 13.576 570.49 15.16 569.978 15.8H569.082V18.76H570.282ZM572.394 11H574.826V15.8H571.338C571.722 15.288 572.17 13.88 572.314 12.2L572.394 11ZM579.083 11.32C579.755 10.968 580.411 10.792 581.067 10.792C582.395 10.792 582.699 11.528 582.699 13.064C582.267 12.76 581.675 12.6 580.907 12.6C579.307 12.6 578.187 13.464 578.187 14.888C578.187 16.248 579.067 17.112 580.395 17.112C581.371 17.112 582.139 16.76 582.699 16.072V17H583.915V12.584C583.915 10.616 583.131 9.64 581.147 9.64C580.251 9.64 579.451 9.864 578.747 10.296L579.083 11.32ZM580.843 15.96C580.027 15.96 579.547 15.528 579.547 14.824C579.547 14.056 580.235 13.64 581.083 13.64C581.707 13.64 582.251 13.8 582.699 14.12V15.032C582.171 15.656 581.563 15.96 580.843 15.96ZM590.186 9.8V13.08C589.754 13.384 589.21 13.528 588.538 13.528C587.498 13.528 586.986 12.968 586.986 11.832V9.8H585.626V11.976C585.626 13.816 586.474 14.728 588.186 14.728C588.97 14.728 589.626 14.552 590.186 14.2V17H591.466V9.8H590.186ZM594.161 11.32C594.833 10.968 595.489 10.792 596.145 10.792C597.473 10.792 597.777 11.528 597.777 13.064C597.345 12.76 596.753 12.6 595.985 12.6C594.385 12.6 593.265 13.464 593.265 14.888C593.265 16.248 594.145 17.112 595.473 17.112C596.449 17.112 597.217 16.76 597.777 16.072V17H598.993V12.584C598.993 10.616 598.209 9.64 596.225 9.64C595.329 9.64 594.529 9.864 593.825 10.296L594.161 11.32ZM595.921 15.96C595.105 15.96 594.625 15.528 594.625 14.824C594.625 14.056 595.313 13.64 596.161 13.64C596.785 13.64 597.329 13.8 597.777 14.12V15.032C597.249 15.656 596.641 15.96 595.921 15.96ZM610.17 11.64V17H611.45V9.8H610.17L606.01 15.16V9.8H604.73V17H606.01L610.17 11.64ZM613.985 18.76V17H619.809V18.76H621.009V15.8H619.809V9.8H614.897L614.785 11.704C614.657 13.576 614.193 15.16 613.681 15.8H612.785V18.76H613.985ZM616.097 11H618.529V15.8H615.041C615.425 15.288 615.873 13.88 616.017 12.2L616.097 11ZM628.082 15.208C627.554 15.704 626.818 15.96 625.874 15.96C624.45 15.96 623.474 15.144 623.362 13.8H628.898C628.946 13.56 628.978 13.272 628.978 12.936C628.978 11.96 628.658 11.176 628.018 10.568C627.378 9.944 626.578 9.64 625.634 9.64C624.482 9.64 623.57 9.992 622.914 10.712C622.258 11.416 621.922 12.312 621.922 13.4C621.922 14.536 622.274 15.448 622.978 16.136C623.682 16.824 624.61 17.16 625.778 17.16C626.882 17.16 627.794 16.84 628.482 16.216L628.082 15.208ZM625.57 10.84C626.802 10.84 627.586 11.56 627.65 12.76H623.282C623.426 11.624 624.29 10.84 625.57 10.84ZM636.155 11.64V17H637.435V9.8H636.155L631.995 15.16V9.8H630.715V17H631.995L636.155 11.64Z" fill="#3D4853" fill-opacity="0.6"/>
<line x1="268" y1="12.5" x2="288" y2="12.5" stroke="#D6DEE8"/>
<line x1="85" y1="12.5" x2="105" y2="12.5" stroke="#D6DEE8"/>
<line x1="486" y1="12.5" x2="506" y2="12.5" stroke="#D6DEE8"/>
<path d="M42.56 17V5.8H41.2V10.648H35.04V5.8H33.68V17H35.04V11.928H41.2V17H42.56ZM45.7704 11.32C46.4424 10.968 47.0984 10.792 47.7544 10.792C49.0824 10.792 49.3864 11.528 49.3864 13.064C48.9544 12.76 48.3624 12.6 47.5944 12.6C45.9944 12.6 44.8744 13.464 44.8744 14.888C44.8744 16.248 45.7544 17.112 47.0824 17.112C48.0584 17.112 48.8264 16.76 49.3864 16.072V17H50.6024V12.584C50.6024 10.616 49.8184 9.64 47.8344 9.64C46.9384 9.64 46.1384 9.864 45.4344 10.296L45.7704 11.32ZM47.5304 15.96C46.7144 15.96 46.2344 15.528 46.2344 14.824C46.2344 14.056 46.9224 13.64 47.7704 13.64C48.3944 13.64 48.9384 13.8 49.3864 14.12V15.032C48.8584 15.656 48.2504 15.96 47.5304 15.96ZM55.1298 17.16C56.9378 17.16 58.1858 16.328 58.1858 15C58.1858 14.12 57.6418 13.416 56.6818 13.304V13.272C57.5298 12.968 57.9458 12.408 57.9458 11.576C57.9458 10.376 56.9698 9.64 55.2418 9.64C54.0898 9.64 52.9698 10.008 52.3938 10.6L52.8898 11.592C53.5618 11.064 54.2818 10.792 55.0498 10.792C55.9938 10.792 56.5858 11.192 56.5858 11.832C56.5858 12.408 56.0578 12.856 55.3378 12.856H54.2018V13.896H55.4178C56.2977 13.896 56.8258 14.232 56.8258 14.824C56.8258 15.528 56.0418 16.008 54.9378 16.008C54.2818 16.008 53.3858 15.688 52.8098 15.224L52.1538 16.184C52.3938 16.456 52.8098 16.696 53.4018 16.888C53.9938 17.064 54.5698 17.16 55.1298 17.16ZM60.5204 11.32C61.1924 10.968 61.8484 10.792 62.5044 10.792C63.8324 10.792 64.1364 11.528 64.1364 13.064C63.7044 12.76 63.1124 12.6 62.3444 12.6C60.7444 12.6 59.6244 13.464 59.6244 14.888C59.6244 16.248 60.5044 17.112 61.8324 17.112C62.8084 17.112 63.5764 16.76 64.1364 16.072V17H65.3524V12.584C65.3524 10.616 64.5684 9.64 62.5844 9.64C61.6884 9.64 60.8884 9.864 60.1844 10.296L60.5204 11.32ZM62.2804 15.96C61.4644 15.96 60.9844 15.528 60.9844 14.824C60.9844 14.056 61.6724 13.64 62.5204 13.64C63.1444 13.64 63.6884 13.8 64.1364 14.12V15.032C63.6084 15.656 63.0004 15.96 62.2804 15.96ZM67.7038 18.76V17H73.5278V18.76H74.7278V15.8H73.5278V9.8H68.6158L68.5038 11.704C68.3758 13.576 67.9118 15.16 67.3997 15.8H66.5038V18.76H67.7038ZM69.8158 11H72.2478V15.8H68.7598C69.1438 15.288 69.5918 13.88 69.7358 12.2L69.8158 11Z" fill="#3D4853"/>
<circle cx="13" cy="13" r="13" fill="url(#paint0_linear)"/>
<path d="M16.41 17.59L11.83 13L16.41 8.41L15 7L9 13L15 19L16.41 17.59Z" fill="white"/>
<defs>
<linearGradient id="paint0_linear" x1="13" y1="0" x2="-5.13092" y2="9.12886" gradientUnits="userSpaceOnUse">
<stop stop-color="#6F27E2"/>
<stop offset="1" stop-color="#8D33C6"/>
</linearGradient>
</defs>
</svg>
