<svg width="435" height="27" viewBox="0 0 435 27" fill="none" xmlns="http://www.w3.org/2000/svg">
<path d="M31.552 18V6.576H40.128V18H38.704V7.84H32.992V18H31.552ZM47.1431 9.264C48.1991 9.264 49.0471 9.632 49.6871 10.368C50.3378 11.104 50.6631 12.2133 50.6631 13.696C50.6631 15.1573 50.3378 16.2667 49.6871 17.024C49.0471 17.7813 48.1938 18.16 47.1271 18.16C46.4658 18.16 45.9165 18.0373 45.4791 17.792C45.0525 17.536 44.7165 17.2427 44.4711 16.912H44.3751C44.3965 17.0933 44.4178 17.3227 44.4391 17.6C44.4605 17.8773 44.4711 18.1173 44.4711 18.32V21.84H43.0631V9.424H44.2151L44.4071 10.592H44.4711C44.7271 10.2187 45.0631 9.904 45.4791 9.648C45.8951 9.392 46.4498 9.264 47.1431 9.264ZM46.8871 10.448C46.0125 10.448 45.3938 10.6933 45.0311 11.184C44.6791 11.6747 44.4925 12.4213 44.4711 13.424V13.696C44.4711 14.752 44.6418 15.568 44.9831 16.144C45.3351 16.7093 45.9805 16.992 46.9191 16.992C47.4418 16.992 47.8685 16.848 48.1991 16.56C48.5405 16.272 48.7911 15.8827 48.9511 15.392C49.1218 14.8907 49.2071 14.32 49.2071 13.68C49.2071 12.6987 49.0151 11.9147 48.6311 11.328C48.2578 10.7413 47.6765 10.448 46.8871 10.448ZM60.3629 13.696C60.3629 15.1147 60.0002 16.2133 59.2749 16.992C58.5602 17.7707 57.5895 18.16 56.3629 18.16C55.6055 18.16 54.9282 17.9893 54.3309 17.648C53.7442 17.296 53.2802 16.7893 52.9389 16.128C52.5975 15.456 52.4269 14.6453 52.4269 13.696C52.4269 12.2773 52.7842 11.184 53.4989 10.416C54.2135 9.648 55.1842 9.264 56.4109 9.264C57.1895 9.264 57.8722 9.44 58.4589 9.792C59.0562 10.1333 59.5202 10.6347 59.8509 11.296C60.1922 11.9467 60.3629 12.7467 60.3629 13.696ZM53.8829 13.696C53.8829 14.7093 54.0802 15.5147 54.4749 16.112C54.8802 16.6987 55.5202 16.992 56.3949 16.992C57.2589 16.992 57.8935 16.6987 58.2989 16.112C58.7042 15.5147 58.9069 14.7093 58.9069 13.696C58.9069 12.6827 58.7042 11.888 58.2989 11.312C57.8935 10.736 57.2535 10.448 56.3789 10.448C55.5042 10.448 54.8695 10.736 54.4749 11.312C54.0802 11.888 53.8829 12.6827 53.8829 13.696ZM65.9064 9.264C66.6424 9.264 67.2717 9.424 67.7944 9.744C68.3277 10.064 68.733 10.5173 69.0104 11.104C69.2984 11.68 69.4424 12.3573 69.4424 13.136V13.984H63.5704C63.5917 14.9547 63.837 15.696 64.3064 16.208C64.7864 16.7093 65.453 16.96 66.3064 16.96C66.8504 16.96 67.3304 16.912 67.7464 16.816C68.173 16.7093 68.6104 16.56 69.0584 16.368V17.6C68.621 17.792 68.189 17.9307 67.7624 18.016C67.3357 18.112 66.829 18.16 66.2424 18.16C65.4317 18.16 64.7117 17.9947 64.0824 17.664C63.4637 17.3333 62.9784 16.8427 62.6264 16.192C62.285 15.5307 62.1144 14.7253 62.1144 13.776C62.1144 12.8373 62.269 12.032 62.5784 11.36C62.8984 10.688 63.341 10.1707 63.9064 9.808C64.4824 9.44533 65.149 9.264 65.9064 9.264ZM65.8904 10.416C65.2184 10.416 64.685 10.6347 64.2904 11.072C63.9064 11.4987 63.677 12.096 63.6024 12.864H67.9704C67.9597 12.1387 67.789 11.552 67.4584 11.104C67.1277 10.6453 66.605 10.416 65.8904 10.416ZM76.6976 9.424H78.2336L74.5696 13.552L78.5376 18H76.9056L73.0336 13.648V18H71.6256V9.424H73.0336V13.584L76.6976 9.424ZM86.0144 10.608H83.2144V18H81.8224V10.608H79.0544V9.424H86.0144V10.608ZM89.0318 9.424V14.656C89.0318 14.784 89.0264 14.976 89.0158 15.232C89.0051 15.488 88.9891 15.744 88.9678 16C88.9571 16.256 88.9464 16.4587 88.9358 16.608L93.5278 9.424H95.2558V18H93.9438V12.944C93.9438 12.7733 93.9438 12.5493 93.9438 12.272C93.9544 11.9947 93.9651 11.7227 93.9758 11.456C93.9864 11.1787 93.9971 10.9707 94.0078 10.832L89.4478 18H87.7038V9.424H89.0318ZM102.065 9.264C103.121 9.264 103.969 9.632 104.609 10.368C105.26 11.104 105.585 12.2133 105.585 13.696C105.585 15.1573 105.26 16.2667 104.609 17.024C103.969 17.7813 103.116 18.16 102.049 18.16C101.388 18.16 100.838 18.0373 100.401 17.792C99.9743 17.536 99.6383 17.2427 99.393 16.912H99.297C99.3183 17.0933 99.3397 17.3227 99.361 17.6C99.3823 17.8773 99.393 18.1173 99.393 18.32V21.84H97.985V9.424H99.137L99.329 10.592H99.393C99.649 10.2187 99.985 9.904 100.401 9.648C100.817 9.392 101.372 9.264 102.065 9.264ZM101.809 10.448C100.934 10.448 100.316 10.6933 99.953 11.184C99.601 11.6747 99.4143 12.4213 99.393 13.424V13.696C99.393 14.752 99.5637 15.568 99.905 16.144C100.257 16.7093 100.902 16.992 101.841 16.992C102.364 16.992 102.79 16.848 103.121 16.56C103.462 16.272 103.713 15.8827 103.873 15.392C104.044 14.8907 104.129 14.32 104.129 13.68C104.129 12.6987 103.937 11.9147 103.553 11.328C103.18 10.7413 102.598 10.448 101.809 10.448ZM115.285 13.696C115.285 15.1147 114.922 16.2133 114.197 16.992C113.482 17.7707 112.511 18.16 111.285 18.16C110.527 18.16 109.85 17.9893 109.253 17.648C108.666 17.296 108.202 16.7893 107.861 16.128C107.519 15.456 107.349 14.6453 107.349 13.696C107.349 12.2773 107.706 11.184 108.421 10.416C109.135 9.648 110.106 9.264 111.333 9.264C112.111 9.264 112.794 9.44 113.381 9.792C113.978 10.1333 114.442 10.6347 114.773 11.296C115.114 11.9467 115.285 12.7467 115.285 13.696ZM108.805 13.696C108.805 14.7093 109.002 15.5147 109.397 16.112C109.802 16.6987 110.442 16.992 111.317 16.992C112.181 16.992 112.815 16.6987 113.221 16.112C113.626 15.5147 113.829 14.7093 113.829 13.696C113.829 12.6827 113.626 11.888 113.221 11.312C112.815 10.736 112.175 10.448 111.301 10.448C110.426 10.448 109.791 10.736 109.397 11.312C109.002 11.888 108.805 12.6827 108.805 13.696ZM124.412 11.584C124.412 12.1173 124.252 12.5333 123.932 12.832C123.612 13.1307 123.202 13.3333 122.7 13.44V13.504C123.234 13.5787 123.698 13.7707 124.092 14.08C124.487 14.3787 124.684 14.848 124.684 15.488C124.684 16.2133 124.412 16.816 123.868 17.296C123.335 17.7653 122.45 18 121.212 18H117.516V9.424H121.196C121.804 9.424 122.348 9.49333 122.828 9.632C123.319 9.76 123.703 9.984 123.98 10.304C124.268 10.6133 124.412 11.04 124.412 11.584ZM122.988 11.76C122.988 11.3547 122.839 11.0613 122.54 10.88C122.252 10.688 121.778 10.592 121.116 10.592H118.924V12.944H120.86C122.279 12.944 122.988 12.5493 122.988 11.76ZM123.228 15.488C123.228 14.9973 123.042 14.6453 122.668 14.432C122.295 14.2187 121.746 14.112 121.02 14.112H118.924V16.864H121.052C121.756 16.864 122.295 16.7627 122.668 16.56C123.042 16.3467 123.228 15.9893 123.228 15.488ZM129.983 9.28C131.028 9.28 131.802 9.50933 132.303 9.968C132.804 10.4267 133.055 11.1573 133.055 12.16V18H132.031L131.759 16.784H131.695C131.322 17.2533 130.927 17.6 130.511 17.824C130.106 18.048 129.54 18.16 128.815 18.16C128.036 18.16 127.391 17.9573 126.879 17.552C126.367 17.136 126.111 16.4907 126.111 15.616C126.111 14.7627 126.447 14.1067 127.119 13.648C127.791 13.1787 128.826 12.9227 130.223 12.88L131.679 12.832V12.32C131.679 11.6053 131.524 11.1093 131.215 10.832C130.906 10.5547 130.468 10.416 129.903 10.416C129.455 10.416 129.028 10.4853 128.623 10.624C128.218 10.752 127.839 10.9013 127.487 11.072L127.055 10.016C127.428 9.81333 127.871 9.64267 128.383 9.504C128.895 9.35467 129.428 9.28 129.983 9.28ZM131.663 13.808L130.399 13.856C129.332 13.8987 128.591 14.0693 128.175 14.368C127.77 14.6667 127.567 15.088 127.567 15.632C127.567 16.112 127.711 16.464 127.999 16.688C128.298 16.912 128.676 17.024 129.135 17.024C129.86 17.024 130.463 16.8267 130.943 16.432C131.423 16.0267 131.663 15.408 131.663 14.576V13.808ZM137.112 9.424V12.992H141.768V9.424H143.176V18H141.768V14.176H137.112V18H135.704V9.424H137.112ZM147.219 9.424V14.656C147.219 14.784 147.214 14.976 147.203 15.232C147.193 15.488 147.177 15.744 147.155 16C147.145 16.256 147.134 16.4587 147.123 16.608L151.715 9.424H153.443V18H152.131V12.944C152.131 12.7733 152.131 12.5493 152.131 12.272C152.142 11.9947 152.153 11.7227 152.163 11.456C152.174 11.1787 152.185 10.9707 152.195 10.832L147.635 18H145.891V9.424H147.219ZM159.485 9.264C160.221 9.264 160.85 9.424 161.373 9.744C161.906 10.064 162.311 10.5173 162.589 11.104C162.877 11.68 163.021 12.3573 163.021 13.136V13.984H157.149C157.17 14.9547 157.415 15.696 157.885 16.208C158.365 16.7093 159.031 16.96 159.885 16.96C160.429 16.96 160.909 16.912 161.325 16.816C161.751 16.7093 162.189 16.56 162.637 16.368V17.6C162.199 17.792 161.767 17.9307 161.341 18.016C160.914 18.112 160.407 18.16 159.821 18.16C159.01 18.16 158.29 17.9947 157.661 17.664C157.042 17.3333 156.557 16.8427 156.205 16.192C155.863 15.5307 155.693 14.7253 155.693 13.776C155.693 12.8373 155.847 12.032 156.157 11.36C156.477 10.688 156.919 10.1707 157.485 9.808C158.061 9.44533 158.727 9.264 159.485 9.264ZM159.469 10.416C158.797 10.416 158.263 10.6347 157.869 11.072C157.485 11.4987 157.255 12.096 157.181 12.864H161.549C161.538 12.1387 161.367 11.552 161.037 11.104C160.706 10.6453 160.183 10.416 159.469 10.416ZM170.141 9.424V14.656C170.141 14.784 170.136 14.976 170.125 15.232C170.114 15.488 170.098 15.744 170.077 16C170.066 16.256 170.056 16.4587 170.045 16.608L174.637 9.424H176.365V18H175.053V12.944C175.053 12.7733 175.053 12.5493 175.053 12.272C175.064 11.9947 175.074 11.7227 175.085 11.456C175.096 11.1787 175.106 10.9707 175.117 10.832L170.557 18H168.813V9.424H170.141ZM185.462 9.424V16.816H186.71V20.976H185.35V18H179.382V20.976H178.038V16.816H178.726C179.462 15.8027 180.012 14.6507 180.374 13.36C180.748 12.0587 180.94 10.7467 180.95 9.424H185.462ZM184.102 10.528H182.198C182.156 11.2533 182.044 12.0053 181.862 12.784C181.681 13.552 181.446 14.288 181.158 14.992C180.881 15.696 180.556 16.304 180.182 16.816H184.102V10.528ZM191.703 9.264C192.439 9.264 193.069 9.424 193.591 9.744C194.125 10.064 194.53 10.5173 194.807 11.104C195.095 11.68 195.239 12.3573 195.239 13.136V13.984H189.367C189.389 14.9547 189.634 15.696 190.103 16.208C190.583 16.7093 191.25 16.96 192.103 16.96C192.647 16.96 193.127 16.912 193.543 16.816C193.97 16.7093 194.407 16.56 194.855 16.368V17.6C194.418 17.792 193.986 17.9307 193.559 18.016C193.133 18.112 192.626 18.16 192.039 18.16C191.229 18.16 190.509 17.9947 189.879 17.664C189.261 17.3333 188.775 16.8427 188.423 16.192C188.082 15.5307 187.911 14.7253 187.911 13.776C187.911 12.8373 188.066 12.032 188.375 11.36C188.695 10.688 189.138 10.1707 189.703 9.808C190.279 9.44533 190.946 9.264 191.703 9.264ZM191.687 10.416C191.015 10.416 190.482 10.6347 190.087 11.072C189.703 11.4987 189.474 12.096 189.399 12.864H193.767C193.757 12.1387 193.586 11.552 193.255 11.104C192.925 10.6453 192.402 10.416 191.687 10.416ZM198.751 9.424V14.656C198.751 14.784 198.745 14.976 198.735 15.232C198.724 15.488 198.708 15.744 198.687 16C198.676 16.256 198.665 16.4587 198.655 16.608L203.247 9.424H204.975V18H203.663V12.944C203.663 12.7733 203.663 12.5493 203.663 12.272C203.673 11.9947 203.684 11.7227 203.695 11.456C203.705 11.1787 203.716 10.9707 203.727 10.832L199.167 18H197.423V9.424H198.751Z" fill="#3D4853"/>
<circle cx="255" cy="14" r="13" fill="#FE645A"/>
<path d="M257.982 18.9771V17.7771H252.814C253.214 17.4251 253.598 17.0731 253.966 16.7051C254.334 16.3371 254.83 15.7931 255.454 15.0731C256.686 13.6171 257.518 11.9371 257.518 10.4811C257.518 9.71311 257.246 9.05711 256.718 8.49711C256.19 7.93711 255.422 7.64911 254.446 7.64911C252.83 7.64911 251.502 8.65711 251.246 10.2731L252.334 10.7211C252.542 9.56911 253.374 8.92911 254.334 8.92911C255.502 8.92911 256.158 9.69711 256.158 10.7371C256.158 11.7771 255.55 13.0411 254.35 14.5451C253.726 15.3131 252.67 16.4491 251.15 17.9371V18.9771H257.982Z" fill="white"/>
<path d="M281.136 6.416V7.824C282.373 7.84533 283.349 8.048 284.064 8.432C284.779 8.816 285.285 9.328 285.584 9.968C285.883 10.5973 286.032 11.3013 286.032 12.08C286.032 12.592 285.952 13.104 285.792 13.616C285.643 14.1173 285.381 14.576 285.008 14.992C284.635 15.3973 284.133 15.728 283.504 15.984C282.875 16.24 282.085 16.3787 281.136 16.4V18.16H279.712V16.4C278.741 16.3787 277.936 16.24 277.296 15.984C276.667 15.7173 276.171 15.376 275.808 14.96C275.445 14.5333 275.189 14.0693 275.04 13.568C274.891 13.0667 274.816 12.5707 274.816 12.08C274.816 11.3227 274.965 10.6293 275.264 10C275.573 9.36 276.085 8.84267 276.8 8.448C277.515 8.05333 278.485 7.84533 279.712 7.824V6.416H281.136ZM279.712 9.04C278.859 9.06133 278.176 9.2 277.664 9.456C277.163 9.712 276.805 10.064 276.592 10.512C276.379 10.9493 276.272 11.4667 276.272 12.064C276.272 13.0027 276.544 13.7547 277.088 14.32C277.643 14.8747 278.517 15.1733 279.712 15.216V9.04ZM281.136 9.04V15.216C282.373 15.1733 283.253 14.8693 283.776 14.304C284.309 13.728 284.576 12.9813 284.576 12.064C284.576 11.456 284.469 10.9333 284.256 10.496C284.043 10.048 283.685 9.70133 283.184 9.456C282.683 9.2 282 9.06133 281.136 9.04ZM295.675 13.696C295.675 15.1147 295.313 16.2133 294.587 16.992C293.873 17.7707 292.902 18.16 291.675 18.16C290.918 18.16 290.241 17.9893 289.643 17.648C289.057 17.296 288.593 16.7893 288.251 16.128C287.91 15.456 287.739 14.6453 287.739 13.696C287.739 12.2773 288.097 11.184 288.811 10.416C289.526 9.648 290.497 9.264 291.723 9.264C292.502 9.264 293.185 9.44 293.771 9.792C294.369 10.1333 294.833 10.6347 295.163 11.296C295.505 11.9467 295.675 12.7467 295.675 13.696ZM289.195 13.696C289.195 14.7093 289.393 15.5147 289.787 16.112C290.193 16.6987 290.833 16.992 291.707 16.992C292.571 16.992 293.206 16.6987 293.611 16.112C294.017 15.5147 294.219 14.7093 294.219 13.696C294.219 12.6827 294.017 11.888 293.611 11.312C293.206 10.736 292.566 10.448 291.691 10.448C290.817 10.448 290.182 10.736 289.787 11.312C289.393 11.888 289.195 12.6827 289.195 13.696ZM301.987 9.264C303.043 9.264 303.891 9.632 304.531 10.368C305.182 11.104 305.507 12.2133 305.507 13.696C305.507 15.1573 305.182 16.2667 304.531 17.024C303.891 17.7813 303.038 18.16 301.971 18.16C301.31 18.16 300.76 18.0373 300.323 17.792C299.896 17.536 299.56 17.2427 299.315 16.912H299.219C299.24 17.0933 299.262 17.3227 299.283 17.6C299.304 17.8773 299.315 18.1173 299.315 18.32V21.84H297.907V9.424H299.059L299.251 10.592H299.315C299.571 10.2187 299.907 9.904 300.323 9.648C300.739 9.392 301.294 9.264 301.987 9.264ZM301.731 10.448C300.856 10.448 300.238 10.6933 299.875 11.184C299.523 11.6747 299.336 12.4213 299.315 13.424V13.696C299.315 14.752 299.486 15.568 299.827 16.144C300.179 16.7093 300.824 16.992 301.763 16.992C302.286 16.992 302.712 16.848 303.043 16.56C303.384 16.272 303.635 15.8827 303.795 15.392C303.966 14.8907 304.051 14.32 304.051 13.68C304.051 12.6987 303.859 11.9147 303.475 11.328C303.102 10.7413 302.52 10.448 301.731 10.448ZM316.951 9.424V18H315.687V12.528C315.687 12.304 315.692 12.0693 315.703 11.824C315.724 11.5787 315.745 11.3387 315.767 11.104H315.719L312.919 18H311.735L309.015 11.104H308.967C308.999 11.584 309.015 12.0747 309.015 12.576V18H307.751V9.424H309.623L312.327 16.32L315.079 9.424H316.951ZM318.344 9.424H319.848L321.704 14.304C321.864 14.7307 322.008 15.1413 322.136 15.536C322.264 15.92 322.36 16.288 322.424 16.64H322.488C322.552 16.3733 322.653 16.0267 322.792 15.6C322.931 15.1627 323.075 14.7253 323.224 14.288L324.968 9.424H326.488L322.792 19.184C322.493 19.9947 322.104 20.64 321.624 21.12C321.155 21.6 320.504 21.84 319.672 21.84C319.416 21.84 319.192 21.824 319 21.792C318.808 21.7707 318.643 21.744 318.504 21.712V20.592C318.621 20.6133 318.76 20.6347 318.92 20.656C319.091 20.6773 319.267 20.688 319.448 20.688C319.939 20.688 320.333 20.5493 320.632 20.272C320.941 19.9947 321.181 19.6267 321.352 19.168L321.8 18.032L318.344 9.424ZM334.06 18H332.636V10.592H330.108C329.969 12.3947 329.777 13.8507 329.532 14.96C329.287 16.0587 328.961 16.8587 328.556 17.36C328.151 17.8613 327.639 18.112 327.02 18.112C326.881 18.112 326.743 18.1013 326.604 18.08C326.476 18.0693 326.369 18.0427 326.284 18V16.944C326.348 16.9653 326.417 16.9813 326.492 16.992C326.567 17.0027 326.641 17.008 326.716 17.008C327.292 17.008 327.751 16.3947 328.092 15.168C328.444 13.9413 328.711 12.0267 328.892 9.424H334.06V18ZM338.11 9.424V14.656C338.11 14.784 338.105 14.976 338.094 15.232C338.083 15.488 338.067 15.744 338.046 16C338.035 16.256 338.025 16.4587 338.014 16.608L342.606 9.424H344.334V18H343.022V12.944C343.022 12.7733 343.022 12.5493 343.022 12.272C343.033 11.9947 343.043 11.7227 343.054 11.456C343.065 11.1787 343.075 10.9707 343.086 10.832L338.526 18H336.782V9.424H338.11ZM351.143 9.264C352.199 9.264 353.047 9.632 353.687 10.368C354.338 11.104 354.663 12.2133 354.663 13.696C354.663 15.1573 354.338 16.2667 353.687 17.024C353.047 17.7813 352.194 18.16 351.127 18.16C350.466 18.16 349.916 18.0373 349.479 17.792C349.052 17.536 348.716 17.2427 348.471 16.912H348.375C348.396 17.0933 348.418 17.3227 348.439 17.6C348.46 17.8773 348.471 18.1173 348.471 18.32V21.84H347.063V9.424H348.215L348.407 10.592H348.471C348.727 10.2187 349.063 9.904 349.479 9.648C349.895 9.392 350.45 9.264 351.143 9.264ZM350.887 10.448C350.012 10.448 349.394 10.6933 349.031 11.184C348.679 11.6747 348.492 12.4213 348.471 13.424V13.696C348.471 14.752 348.642 15.568 348.983 16.144C349.335 16.7093 349.98 16.992 350.919 16.992C351.442 16.992 351.868 16.848 352.199 16.56C352.54 16.272 352.791 15.8827 352.951 15.392C353.122 14.8907 353.207 14.32 353.207 13.68C353.207 12.6987 353.015 11.9147 352.631 11.328C352.258 10.7413 351.676 10.448 350.887 10.448ZM364.363 13.696C364.363 15.1147 364 16.2133 363.275 16.992C362.56 17.7707 361.59 18.16 360.363 18.16C359.606 18.16 358.928 17.9893 358.331 17.648C357.744 17.296 357.28 16.7893 356.939 16.128C356.598 15.456 356.427 14.6453 356.427 13.696C356.427 12.2773 356.784 11.184 357.499 10.416C358.214 9.648 359.184 9.264 360.411 9.264C361.19 9.264 361.872 9.44 362.459 9.792C363.056 10.1333 363.52 10.6347 363.851 11.296C364.192 11.9467 364.363 12.7467 364.363 13.696ZM357.883 13.696C357.883 14.7093 358.08 15.5147 358.475 16.112C358.88 16.6987 359.52 16.992 360.395 16.992C361.259 16.992 361.894 16.6987 362.299 16.112C362.704 15.5147 362.907 14.7093 362.907 13.696C362.907 12.6827 362.704 11.888 362.299 11.312C361.894 10.736 361.254 10.448 360.379 10.448C359.504 10.448 358.87 10.736 358.475 11.312C358.08 11.888 357.883 12.6827 357.883 13.696ZM373.49 11.584C373.49 12.1173 373.33 12.5333 373.01 12.832C372.69 13.1307 372.28 13.3333 371.778 13.44V13.504C372.312 13.5787 372.776 13.7707 373.17 14.08C373.565 14.3787 373.762 14.848 373.762 15.488C373.762 16.2133 373.49 16.816 372.946 17.296C372.413 17.7653 371.528 18 370.29 18H366.594V9.424H370.274C370.882 9.424 371.426 9.49333 371.906 9.632C372.397 9.76 372.781 9.984 373.058 10.304C373.346 10.6133 373.49 11.04 373.49 11.584ZM372.066 11.76C372.066 11.3547 371.917 11.0613 371.618 10.88C371.33 10.688 370.856 10.592 370.194 10.592H368.002V12.944H369.938C371.357 12.944 372.066 12.5493 372.066 11.76ZM372.306 15.488C372.306 14.9973 372.12 14.6453 371.746 14.432C371.373 14.2187 370.824 14.112 370.098 14.112H368.002V16.864H370.13C370.834 16.864 371.373 16.7627 371.746 16.56C372.12 16.3467 372.306 15.9893 372.306 15.488ZM380.885 9.424H382.421L378.757 13.552L382.725 18H381.093L377.221 13.648V18H375.813V9.424H377.221V13.584L380.885 9.424ZM387.53 9.28C388.575 9.28 389.349 9.50933 389.85 9.968C390.351 10.4267 390.602 11.1573 390.602 12.16V18H389.578L389.306 16.784H389.242C388.869 17.2533 388.474 17.6 388.058 17.824C387.653 18.048 387.087 18.16 386.362 18.16C385.583 18.16 384.938 17.9573 384.426 17.552C383.914 17.136 383.658 16.4907 383.658 15.616C383.658 14.7627 383.994 14.1067 384.666 13.648C385.338 13.1787 386.373 12.9227 387.77 12.88L389.226 12.832V12.32C389.226 11.6053 389.071 11.1093 388.762 10.832C388.453 10.5547 388.015 10.416 387.45 10.416C387.002 10.416 386.575 10.4853 386.17 10.624C385.765 10.752 385.386 10.9013 385.034 11.072L384.602 10.016C384.975 9.81333 385.418 9.64267 385.93 9.504C386.442 9.35467 386.975 9.28 387.53 9.28ZM389.21 13.808L387.946 13.856C386.879 13.8987 386.138 14.0693 385.722 14.368C385.317 14.6667 385.114 15.088 385.114 15.632C385.114 16.112 385.258 16.464 385.546 16.688C385.845 16.912 386.223 17.024 386.682 17.024C387.407 17.024 388.01 16.8267 388.49 16.432C388.97 16.0267 389.21 15.408 389.21 14.576V13.808ZM398.188 9.424V14.656C398.188 14.784 398.183 14.976 398.172 15.232C398.161 15.488 398.145 15.744 398.124 16C398.113 16.256 398.103 16.4587 398.092 16.608L402.684 9.424H404.412V18H403.1V12.944C403.1 12.7733 403.1 12.5493 403.1 12.272C403.111 11.9947 403.121 11.7227 403.132 11.456C403.143 11.1787 403.153 10.9707 403.164 10.832L398.604 18H396.86V9.424H398.188ZM413.509 9.424V16.816H414.757V20.976H413.397V18H407.429V20.976H406.085V16.816H406.773C407.509 15.8027 408.059 14.6507 408.421 13.36C408.795 12.0587 408.987 10.7467 408.997 9.424H413.509ZM412.149 10.528H410.245C410.203 11.2533 410.091 12.0053 409.909 12.784C409.728 13.552 409.493 14.288 409.205 14.992C408.928 15.696 408.603 16.304 408.229 16.816H412.149V10.528ZM419.75 9.264C420.486 9.264 421.115 9.424 421.638 9.744C422.171 10.064 422.577 10.5173 422.854 11.104C423.142 11.68 423.286 12.3573 423.286 13.136V13.984H417.414C417.435 14.9547 417.681 15.696 418.15 16.208C418.63 16.7093 419.297 16.96 420.15 16.96C420.694 16.96 421.174 16.912 421.59 16.816C422.017 16.7093 422.454 16.56 422.902 16.368V17.6C422.465 17.792 422.033 17.9307 421.606 18.016C421.179 18.112 420.673 18.16 420.086 18.16C419.275 18.16 418.555 17.9947 417.926 17.664C417.307 17.3333 416.822 16.8427 416.47 16.192C416.129 15.5307 415.958 14.7253 415.958 13.776C415.958 12.8373 416.113 12.032 416.422 11.36C416.742 10.688 417.185 10.1707 417.75 9.808C418.326 9.44533 418.993 9.264 419.75 9.264ZM419.734 10.416C419.062 10.416 418.529 10.6347 418.134 11.072C417.75 11.4987 417.521 12.096 417.446 12.864H421.814C421.803 12.1387 421.633 11.552 421.302 11.104C420.971 10.6453 420.449 10.416 419.734 10.416ZM426.797 9.424V14.656C426.797 14.784 426.792 14.976 426.781 15.232C426.771 15.488 426.755 15.744 426.733 16C426.723 16.256 426.712 16.4587 426.701 16.608L431.293 9.424H433.021V18H431.709V12.944C431.709 12.7733 431.709 12.5493 431.709 12.272C431.72 11.9947 431.731 11.7227 431.741 11.456C431.752 11.1787 431.763 10.9707 431.773 10.832L427.213 18H425.469V9.424H426.797Z" fill="#3D4853"/>
<path d="M13 0C5.824 0 0 5.824 0 13C0 20.176 5.824 26 13 26C20.176 26 26 20.176 26 13C26 5.824 20.176 0 13 0ZM10.4 19.5L3.9 13L5.733 11.167L10.4 15.821L20.267 5.954L22.1 7.8L10.4 19.5Z" fill="url(#paint0_linear)"/>
<defs>
<linearGradient id="paint0_linear" x1="13" y1="1.93715e-07" x2="6.5" y2="30.5" gradientUnits="userSpaceOnUse">
<stop stop-color="#00A460"/>
<stop offset="1" stop-color="#87C3AA"/>
</linearGradient>
</defs>
</svg>
