<svg xmlns="http://www.w3.org/2000/svg" width="59.438" height="59.522" viewBox="0 0 59.438 59.522">
  <g id="Лампочка_иконка" data-name="Лампочка иконка" transform="translate(0 0)">
    <g id="idea">
      <g id="Group_36" data-name="Group 36" transform="translate(0 19.316)">
        <g id="Group_35" data-name="Group 35">
          <path id="Path_449" data-name="Path 449" d="M6.982,166.155H1.8a1.44,1.44,0,0,0,0,2.88H6.982a1.44,1.44,0,1,0,0-2.88Z" transform="translate(-0.36 -166.155)" fill="#606060"/>
        </g>
      </g>
      <g id="Group_38" data-name="Group 38" transform="translate(51.377 19.316)">
        <g id="Group_37" data-name="Group 37">
          <path id="Path_450" data-name="Path 450" d="M448.915,166.155h-5.182a1.44,1.44,0,0,0,0,2.88h5.182a1.44,1.44,0,0,0,0-2.88Z" transform="translate(-442.293 -166.155)" fill="#606060"/>
        </g>
      </g>
      <g id="Group_40" data-name="Group 40" transform="translate(6.327 37.5)">
        <g id="Group_39" data-name="Group 39" transform="translate(0 0)">
          <path id="Path_451" data-name="Path 451" d="M61.009,322.985a1.44,1.44,0,0,0-2.036,0L55.2,326.754a1.44,1.44,0,1,0,2.036,2.036l3.769-3.769A1.44,1.44,0,0,0,61.009,322.985Z" transform="translate(-54.782 -322.563)" fill="#606060"/>
        </g>
      </g>
      <g id="Group_42" data-name="Group 42" transform="translate(43.93)">
        <g id="Group_41" data-name="Group 41">
          <path id="Path_452" data-name="Path 452" d="M384.359.422a1.44,1.44,0,0,0-2.036,0l-3.666,3.666a1.44,1.44,0,0,0,2.036,2.036l3.666-3.666A1.44,1.44,0,0,0,384.359.422Z" transform="translate(-378.235 0)" fill="#606060"/>
        </g>
      </g>
      <g id="Group_44" data-name="Group 44" transform="translate(8.963 0)">
        <g id="Group_43" data-name="Group 43">
          <path id="Path_453" data-name="Path 453" d="M83.579,4.087,79.915.423A1.44,1.44,0,0,0,77.879,2.46l3.664,3.664a1.44,1.44,0,0,0,2.036-2.037Z" transform="translate(-77.457 -0.002)" fill="#606060"/>
        </g>
      </g>
      <g id="Group_46" data-name="Group 46" transform="translate(46.477 37.514)">
        <g id="Group_45" data-name="Group 45" transform="translate(0 0)">
          <path id="Path_454" data-name="Path 454" d="M406.354,326.862l-3.755-3.755a1.44,1.44,0,0,0-2.036,2.036l3.755,3.755a1.44,1.44,0,0,0,2.036-2.036Z" transform="translate(-400.14 -322.684)" fill="#606060"/>
        </g>
      </g>
      <g id="Group_48" data-name="Group 48" transform="translate(11.662 3.91)">
        <g id="Group_47" data-name="Group 47">
          <path id="Path_455" data-name="Path 455" d="M118.73,33.636c-9.957,0-18.058,8.473-18.058,18.888a25.322,25.322,0,0,0,4.759,14.3,18.121,18.121,0,0,1,3.55,10.491v9.053a2.883,2.883,0,0,0,2.88,2.88H125.6a2.883,2.883,0,0,0,2.88-2.88V77.315a18.122,18.122,0,0,1,3.55-10.491,25.322,25.322,0,0,0,4.759-14.3C136.787,42.109,128.686,33.636,118.73,33.636ZM125.6,86.368H111.861V84.485h6.869a1.44,1.44,0,1,0,0-2.88h-6.869V79.722H125.6l0,6.646ZM116.71,59.5l-1.926-4.114h7.89L120.749,59.5a1.443,1.443,0,0,0-.133.515L119.5,76.842h-1.54l-1.117-16.823A1.443,1.443,0,0,0,116.71,59.5Zm12.972,5.65A21.084,21.084,0,0,0,125.6,76.842h-3.218l1.086-16.363,2.77-5.919a1.44,1.44,0,0,0-1.3-2.05H112.521a1.44,1.44,0,0,0-1.3,2.05l2.771,5.919,1.086,16.363h-3.219a21.083,21.083,0,0,0-4.078-11.689,22.7,22.7,0,0,1-4.224-12.629c0-8.827,6.809-16.009,15.178-16.009s15.178,7.181,15.178,16.009A22.7,22.7,0,0,1,129.683,65.153Z" transform="translate(-100.672 -33.636)" fill="#606060"/>
        </g>
      </g>
    </g>
  </g>
</svg>
