<svg xmlns="http://www.w3.org/2000/svg" width="47.073" height="61.838" viewBox="0 0 47.073 61.838">

  <g id="КлиектИконка" transform="translate(0 0)">
    <g id="Group_50" data-name="Group 50">
      <path id="Path_456" data-name="Path 456" d="M98.969,40.154a8.158,8.158,0,0,1-8.226-7.423,13.951,13.951,0,0,0,3.215-3.178,19.319,19.319,0,0,0,3.481-9.081,1.384,1.384,0,0,0,.349-.492,14.985,14.985,0,0,0,1.163-5.832C98.951,6.347,93.067,0,85.833,0a12.178,12.178,0,0,0-5.46,1.3,9.6,9.6,0,0,0-1.931.346,10.848,10.848,0,0,0-6.807,6.2,15.4,15.4,0,0,0-.764,10.111,16.289,16.289,0,0,0,.707,2.142,1.384,1.384,0,0,0,.327.476c.691,5.326,3.225,9.738,6.68,12.147a8.16,8.16,0,0,1-8.226,7.434,9.568,9.568,0,0,0-9.23,9.55V60.446a1.392,1.392,0,0,0,1.392,1.392h44.288a1.392,1.392,0,0,0,1.392-1.392V49.7A9.568,9.568,0,0,0,98.969,40.154ZM79.215,4.318a6.861,6.861,0,0,1,1.595-.259A1.391,1.391,0,0,0,81.4,3.9a9.461,9.461,0,0,1,4.438-1.116c5.7,0,10.333,5.1,10.333,11.363,0,.188-.005.375-.014.561a6.07,6.07,0,0,0-4.336-1.82h-9.49a2.592,2.592,0,0,1-2.407-1.626,1.707,1.707,0,0,0-3.235.213,12.915,12.915,0,0,1-3.151,5.638C72.134,11.353,74.66,5.634,79.215,4.318ZM78,28.4a16.375,16.375,0,0,1-3.374-8.474,15.778,15.778,0,0,0,4.05-5.676,5.429,5.429,0,0,0,.432.359,5.337,5.337,0,0,0,3.216,1.066h9.49a3.308,3.308,0,0,1,3.016,1.958c0,.01,0,.019,0,.029,0,7.86-4.561,14.255-10.166,14.255A8.708,8.708,0,0,1,78,28.4Zm3.2,5.688a10.132,10.132,0,0,0,6.922.007,10.9,10.9,0,0,0,4.049,6.565L84.863,51.072a.241.241,0,0,1-.394,0L77.156,40.657A10.9,10.9,0,0,0,81.2,34.087Zm24.212,24.966h-41.5V49.7a6.781,6.781,0,0,1,6.773-6.773,11.935,11.935,0,0,0,4.062-.859l7.443,10.6a3.028,3.028,0,0,0,2.476,1.287h0a3.028,3.028,0,0,0,2.476-1.287l7.442-10.6a11.463,11.463,0,0,0,4.058.857,6.781,6.781,0,0,1,6.773,6.773Z" transform="translate(-61.127)" fill="#606060"/>
    </g>
  </g>
</svg>
