<svg width="143" height="36" viewBox="0 0 143 36" fill="none" xmlns="http://www.w3.org/2000/svg">
<path d="M12.96 13.56V24H16.8V7.2H13.44L6 17.64V7.2H2.16V24H5.52L12.96 13.56ZM22.8009 26.88V24H33.2169V26.88H36.8169V20.4H34.5369V7.2H23.5689L23.4249 10.56C23.3049 12.984 22.9929 15.096 22.4649 16.872C21.9609 18.624 21.4569 19.8 21.0009 20.4H19.2009V26.88H22.8009ZM27.2889 10.8H30.6969V20.4H25.2249C25.5369 19.992 25.8729 19.128 26.2569 17.76C26.6409 16.392 26.9049 15 27.0249 13.632L27.2889 10.8ZM49.6491 24V20.4H43.2891V17.352H48.6891V13.752H43.2891V10.8H49.4091V7.2H39.4491V24H49.6491ZM64.0538 13.56V24H67.8938V7.2H64.5338L57.0938 17.64V7.2H53.2538V24H56.6138L64.0538 13.56ZM80.8594 24V16.008L86.5954 24H91.4674L84.6514 14.952L90.9634 7.2H86.3554L80.8594 14.52V7.2H77.0194V24H80.8594ZM97.4766 18.288C97.8846 18.336 98.5086 18.36 99.3486 18.36C101.221 18.36 102.733 17.808 103.861 16.728C104.989 15.624 105.565 14.28 105.565 12.72C105.565 11.112 105.037 9.768 103.957 8.736C102.877 7.68 101.149 7.152 98.7726 7.152C98.3166 7.152 97.4046 7.152 96.0606 7.176C94.7406 7.2 93.9246 7.2 93.6366 7.2V24H97.4766V18.288ZM99.1566 10.752C100.717 10.752 101.485 11.4 101.485 12.696C101.485 14.16 100.453 14.76 99.2286 14.76C98.6766 14.76 98.0766 14.712 97.4766 14.64V10.8C98.5326 10.776 99.0846 10.752 99.1566 10.752ZM131.742 24V16.008L137.478 24H142.35L135.534 14.952L141.846 7.2H137.238L131.742 14.52V7.2H127.902V24H131.742Z" fill="url(#paint0_linear)"/>
<path fill-rule="evenodd" clip-rule="evenodd" d="M120.073 19.8797C119.925 20.7622 119.113 21.4241 118.227 21.4241H114.241C113.282 21.4241 112.544 20.7622 112.396 19.8797C111.879 16.7908 109.074 16.3495 109 12.1575C108.926 2.52311 123.468 2.52311 123.468 12.0839C123.468 16.3495 120.59 16.7908 120.073 19.8797ZM117.415 12.5252L116.234 13.6284L115.053 12.5252C114.389 11.7898 113.282 12.8194 114.02 13.5548L115.496 15.0257V19.6591H114.241C114.167 19.6591 114.167 19.6591 114.167 19.5855C113.577 16.1289 110.772 15.467 110.772 12.1575C110.698 4.87655 121.697 4.87655 121.697 12.0839C121.697 15.467 118.892 16.1289 118.301 19.5855C118.301 19.6591 118.301 19.6591 118.227 19.6591H116.973V15.0257L118.449 13.5548C119.187 12.8194 118.08 11.7898 117.415 12.5252Z" fill="#6F27E2"/>
<path fill-rule="evenodd" clip-rule="evenodd" d="M119.482 23.1364C119.482 24.0189 119.556 25.0486 118.301 25.2692C117.785 27.3284 114.684 27.402 114.167 25.2692C112.913 25.0486 112.986 24.0189 112.986 23.1364C112.986 22.6951 113.356 22.3274 113.798 22.3274H118.67C119.113 22.3274 119.482 22.6951 119.482 23.1364Z" fill="#6F27E2"/>
<defs>
<linearGradient id="paint0_linear" x1="71.5" y1="0" x2="46.5" y2="50" gradientUnits="userSpaceOnUse">
<stop stop-color="#6F27E2"/>
<stop offset="1" stop-color="#8D33C6"/>
</linearGradient>
</defs>
</svg>
