<svg id="TrashIcon" xmlns="http://www.w3.org/2000/svg" width="122" height="122" viewBox="0 0 122 122">
  <g id="icons8-trash_1_" data-name="icons8-trash (1)" transform="translate(36 33.284)">
    <path id="Path_655" data-name="Path 655" d="M6,4H37.119V48.085H6Z" transform="translate(3.186 3.186)" fill="none"/>
    <path id="Path_656" data-name="Path 656" d="M22.152,41.9H16.966V13.373h5.186Zm10.373,0H27.339V13.373h5.186ZM4,3H45.491V8.186H4Z" transform="translate(0 1.593)" fill="#909090"/>
    <path id="Path_657" data-name="Path 657" d="M32.932,9.78,25.152,2H14.78L7,9.78Z" transform="translate(4.78)" fill="#909090"/>
    <path id="Path_658" data-name="Path 658" d="M36.119,52.271H10.186A5.2,5.2,0,0,1,5,47.085V3H41.3V47.085A5.2,5.2,0,0,1,36.119,52.271ZM10.186,8.186v38.9H36.119V8.186Z" transform="translate(1.593 1.593)" fill="#909090"/>
  </g>
  <g id="Ellipse_15" data-name="Ellipse 15" fill="none" stroke="#909090" stroke-width="6">
    <circle cx="61" cy="61" r="61" stroke="none"/>
    <circle cx="61" cy="61" r="58" fill="none"/>
  </g>
</svg>
