<svg width="518" height="26" viewBox="0 0 518 26" fill="none" xmlns="http://www.w3.org/2000/svg">
<circle cx="13" cy="13" r="13" fill="#FE645A"/>
<path d="M10.8494 9.83311L12.4814 8.55311V17.9771H13.7614V6.71311H12.8654L10.1774 8.79311L10.8494 9.83311Z" fill="white"/>
<path d="M43.52 11.272C43.52 12.456 43.3173 13.4907 42.912 14.376C42.5173 15.2507 41.9307 15.9333 41.152 16.424C40.3733 16.9147 39.408 17.16 38.256 17.16C37.072 17.16 36.0853 16.9147 35.296 16.424C34.5173 15.9333 33.936 15.2453 33.552 14.36C33.168 13.4747 32.976 12.44 32.976 11.256C32.976 10.0827 33.168 9.05867 33.552 8.184C33.936 7.30933 34.5173 6.62667 35.296 6.136C36.0853 5.64533 37.0773 5.4 38.272 5.4C39.4133 5.4 40.3733 5.64533 41.152 6.136C41.9307 6.616 42.5173 7.29867 42.912 8.184C43.3173 9.05867 43.52 10.088 43.52 11.272ZM34.496 11.272C34.496 12.712 34.8 13.848 35.408 14.68C36.016 15.5013 36.9653 15.912 38.256 15.912C39.5573 15.912 40.5067 15.5013 41.104 14.68C41.7013 13.848 42 12.712 42 11.272C42 9.832 41.7013 8.70667 41.104 7.896C40.5067 7.07467 39.5627 6.664 38.272 6.664C36.9813 6.664 36.0267 7.07467 35.408 7.896C34.8 8.70667 34.496 9.832 34.496 11.272ZM53.108 8.424V17H51.7V9.624H47.268V17H45.86V8.424H53.108ZM57.1724 8.424V13.656C57.1724 13.784 57.167 13.976 57.1564 14.232C57.1457 14.488 57.1297 14.744 57.1084 15C57.0977 15.256 57.087 15.4587 57.0764 15.608L61.6684 8.424H63.3964V17H62.0844V11.944C62.0844 11.7733 62.0844 11.5493 62.0844 11.272C62.095 10.9947 62.1057 10.7227 62.1164 10.456C62.127 10.1787 62.1377 9.97067 62.1484 9.832L57.5884 17H55.8444V8.424H57.1724ZM69.5656 17.16C68.8083 17.16 68.131 17.0053 67.5336 16.696C66.947 16.3867 66.483 15.9067 66.1416 15.256C65.811 14.6053 65.6456 13.7733 65.6456 12.76C65.6456 11.704 65.8216 10.8453 66.1736 10.184C66.5256 9.52267 67.0003 9.03733 67.5976 8.728C68.2056 8.41867 68.8936 8.264 69.6616 8.264C70.099 8.264 70.5203 8.312 70.9256 8.408C71.331 8.49333 71.6616 8.6 71.9176 8.728L71.4856 9.896C71.2296 9.8 70.931 9.70933 70.5896 9.624C70.2483 9.53867 69.9283 9.496 69.6296 9.496C67.9443 9.496 67.1016 10.5787 67.1016 12.744C67.1016 13.7787 67.3043 14.5733 67.7096 15.128C68.1256 15.672 68.739 15.944 69.5496 15.944C70.019 15.944 70.4296 15.896 70.7816 15.8C71.1443 15.704 71.475 15.5867 71.7736 15.448V16.696C71.4856 16.8453 71.1656 16.9573 70.8136 17.032C70.4723 17.1173 70.0563 17.16 69.5656 17.16ZM77.0611 8.28C78.1065 8.28 78.8798 8.50933 79.3811 8.968C79.8825 9.42667 80.1331 10.1573 80.1331 11.16V17H79.1091L78.8371 15.784H78.7731C78.3998 16.2533 78.0051 16.6 77.5891 16.824C77.1838 17.048 76.6185 17.16 75.8931 17.16C75.1145 17.16 74.4691 16.9573 73.9571 16.552C73.4451 16.136 73.1891 15.4907 73.1891 14.616C73.1891 13.7627 73.5251 13.1067 74.1971 12.648C74.8691 12.1787 75.9038 11.9227 77.3011 11.88L78.7571 11.832V11.32C78.7571 10.6053 78.6025 10.1093 78.2931 9.832C77.9838 9.55467 77.5465 9.416 76.9811 9.416C76.5331 9.416 76.1065 9.48533 75.7011 9.624C75.2958 9.752 74.9171 9.90133 74.5651 10.072L74.1331 9.016C74.5065 8.81333 74.9491 8.64267 75.4611 8.504C75.9731 8.35467 76.5065 8.28 77.0611 8.28ZM78.7411 12.808L77.4771 12.856C76.4105 12.8987 75.6691 13.0693 75.2531 13.368C74.8478 13.6667 74.6451 14.088 74.6451 14.632C74.6451 15.112 74.7891 15.464 75.0771 15.688C75.3758 15.912 75.7545 16.024 76.2131 16.024C76.9385 16.024 77.5411 15.8267 78.0211 15.432C78.5011 15.0267 78.7411 14.408 78.7411 13.576V12.808ZM84.1899 8.424V11.992H88.8459V8.424H90.2539V17H88.8459V13.176H84.1899V17H82.7819V8.424H84.1899ZM94.2974 8.424V13.656C94.2974 13.784 94.292 13.976 94.2814 14.232C94.2707 14.488 94.2547 14.744 94.2334 15C94.2227 15.256 94.212 15.4587 94.2014 15.608L98.7934 8.424H100.521V17H99.2094V11.944C99.2094 11.7733 99.2094 11.5493 99.2094 11.272C99.22 10.9947 99.2307 10.7227 99.2414 10.456C99.252 10.1787 99.2627 9.97067 99.2734 9.832L94.7134 17H92.9694V8.424H94.2974ZM106.563 8.264C107.299 8.264 107.928 8.424 108.451 8.744C108.984 9.064 109.389 9.51733 109.667 10.104C109.955 10.68 110.099 11.3573 110.099 12.136V12.984H104.227C104.248 13.9547 104.493 14.696 104.963 15.208C105.443 15.7093 106.109 15.96 106.963 15.96C107.507 15.96 107.987 15.912 108.403 15.816C108.829 15.7093 109.267 15.56 109.715 15.368V16.6C109.277 16.792 108.845 16.9307 108.419 17.016C107.992 17.112 107.485 17.16 106.899 17.16C106.088 17.16 105.368 16.9947 104.739 16.664C104.12 16.3333 103.635 15.8427 103.283 15.192C102.941 14.5307 102.771 13.7253 102.771 12.776C102.771 11.8373 102.925 11.032 103.235 10.36C103.555 9.688 103.997 9.17067 104.563 8.808C105.139 8.44533 105.805 8.264 106.563 8.264ZM106.547 9.416C105.875 9.416 105.341 9.63467 104.947 10.072C104.563 10.4987 104.333 11.096 104.259 11.864H108.627C108.616 11.1387 108.445 10.552 108.115 10.104C107.784 9.64533 107.261 9.416 106.547 9.416ZM117.219 8.424V13.656C117.219 13.784 117.214 13.976 117.203 14.232C117.193 14.488 117.177 14.744 117.155 15C117.145 15.256 117.134 15.4587 117.123 15.608L121.715 8.424H123.443V17H122.131V11.944C122.131 11.7733 122.131 11.5493 122.131 11.272C122.142 10.9947 122.153 10.7227 122.163 10.456C122.174 10.1787 122.185 9.97067 122.195 9.832L117.635 17H115.891V8.424H117.219ZM132.541 8.424V15.816H133.789V19.976H132.429V17H126.461V19.976H125.117V15.816H125.805C126.541 14.8027 127.09 13.6507 127.453 12.36C127.826 11.0587 128.018 9.74667 128.029 8.424H132.541ZM131.181 9.528H129.277C129.234 10.2533 129.122 11.0053 128.941 11.784C128.759 12.552 128.525 13.288 128.237 13.992C127.959 14.696 127.634 15.304 127.261 15.816H131.181V9.528ZM138.781 8.264C139.517 8.264 140.147 8.424 140.669 8.744C141.203 9.064 141.608 9.51733 141.885 10.104C142.173 10.68 142.317 11.3573 142.317 12.136V12.984H136.445C136.467 13.9547 136.712 14.696 137.181 15.208C137.661 15.7093 138.328 15.96 139.181 15.96C139.725 15.96 140.205 15.912 140.621 15.816C141.048 15.7093 141.485 15.56 141.933 15.368V16.6C141.496 16.792 141.064 16.9307 140.637 17.016C140.211 17.112 139.704 17.16 139.117 17.16C138.307 17.16 137.587 16.9947 136.957 16.664C136.339 16.3333 135.853 15.8427 135.501 15.192C135.16 14.5307 134.989 13.7253 134.989 12.776C134.989 11.8373 135.144 11.032 135.453 10.36C135.773 9.688 136.216 9.17067 136.781 8.808C137.357 8.44533 138.024 8.264 138.781 8.264ZM138.765 9.416C138.093 9.416 137.56 9.63467 137.165 10.072C136.781 10.4987 136.552 11.096 136.477 11.864H140.845C140.835 11.1387 140.664 10.552 140.333 10.104C140.003 9.64533 139.48 9.416 138.765 9.416ZM145.829 8.424V13.656C145.829 13.784 145.823 13.976 145.813 14.232C145.802 14.488 145.786 14.744 145.765 15C145.754 15.256 145.743 15.4587 145.733 15.608L150.325 8.424H152.053V17H150.741V11.944C150.741 11.7733 150.741 11.5493 150.741 11.272C150.751 10.9947 150.762 10.7227 150.773 10.456C150.783 10.1787 150.794 9.97067 150.805 9.832L146.245 17H144.501V8.424H145.829Z" fill="#3D4853"/>
<circle cx="196" cy="13" r="13" fill="#DAE3EF"/>
<path d="M198.982 17.9771V16.7771H193.814C194.214 16.4251 194.598 16.0731 194.966 15.7051C195.334 15.3371 195.83 14.7931 196.454 14.0731C197.686 12.6171 198.518 10.9371 198.518 9.48111C198.518 8.71311 198.246 8.05711 197.718 7.49711C197.19 6.93711 196.422 6.64911 195.446 6.64911C193.83 6.64911 192.502 7.65711 192.246 9.27311L193.334 9.72111C193.542 8.56911 194.374 7.92911 195.334 7.92911C196.502 7.92911 197.158 8.69711 197.158 9.73711C197.158 10.7771 196.55 12.0411 195.35 13.5451C194.726 14.3131 193.67 15.4491 192.15 16.9371V17.9771H198.982Z" fill="white"/>
<path d="M222.136 5.416V6.824C223.373 6.84533 224.349 7.048 225.064 7.432C225.779 7.816 226.285 8.328 226.584 8.968C226.883 9.59733 227.032 10.3013 227.032 11.08C227.032 11.592 226.952 12.104 226.792 12.616C226.643 13.1173 226.381 13.576 226.008 13.992C225.635 14.3973 225.133 14.728 224.504 14.984C223.875 15.24 223.085 15.3787 222.136 15.4V17.16H220.712V15.4C219.741 15.3787 218.936 15.24 218.296 14.984C217.667 14.7173 217.171 14.376 216.808 13.96C216.445 13.5333 216.189 13.0693 216.04 12.568C215.891 12.0667 215.816 11.5707 215.816 11.08C215.816 10.3227 215.965 9.62933 216.264 9C216.573 8.36 217.085 7.84267 217.8 7.448C218.515 7.05333 219.485 6.84533 220.712 6.824V5.416H222.136ZM220.712 8.04C219.859 8.06133 219.176 8.2 218.664 8.456C218.163 8.712 217.805 9.064 217.592 9.512C217.379 9.94933 217.272 10.4667 217.272 11.064C217.272 12.0027 217.544 12.7547 218.088 13.32C218.643 13.8747 219.517 14.1733 220.712 14.216V8.04ZM222.136 8.04V14.216C223.373 14.1733 224.253 13.8693 224.776 13.304C225.309 12.728 225.576 11.9813 225.576 11.064C225.576 10.456 225.469 9.93333 225.256 9.496C225.043 9.048 224.685 8.70133 224.184 8.456C223.683 8.2 223 8.06133 222.136 8.04ZM236.675 12.696C236.675 14.1147 236.313 15.2133 235.587 15.992C234.873 16.7707 233.902 17.16 232.675 17.16C231.918 17.16 231.241 16.9893 230.643 16.648C230.057 16.296 229.593 15.7893 229.251 15.128C228.91 14.456 228.739 13.6453 228.739 12.696C228.739 11.2773 229.097 10.184 229.811 9.416C230.526 8.648 231.497 8.264 232.723 8.264C233.502 8.264 234.185 8.44 234.771 8.792C235.369 9.13333 235.833 9.63467 236.163 10.296C236.505 10.9467 236.675 11.7467 236.675 12.696ZM230.195 12.696C230.195 13.7093 230.393 14.5147 230.787 15.112C231.193 15.6987 231.833 15.992 232.707 15.992C233.571 15.992 234.206 15.6987 234.611 15.112C235.017 14.5147 235.219 13.7093 235.219 12.696C235.219 11.6827 235.017 10.888 234.611 10.312C234.206 9.736 233.566 9.448 232.691 9.448C231.817 9.448 231.182 9.736 230.787 10.312C230.393 10.888 230.195 11.6827 230.195 12.696ZM242.987 8.264C244.043 8.264 244.891 8.632 245.531 9.368C246.182 10.104 246.507 11.2133 246.507 12.696C246.507 14.1573 246.182 15.2667 245.531 16.024C244.891 16.7813 244.038 17.16 242.971 17.16C242.31 17.16 241.76 17.0373 241.323 16.792C240.896 16.536 240.56 16.2427 240.315 15.912H240.219C240.24 16.0933 240.262 16.3227 240.283 16.6C240.304 16.8773 240.315 17.1173 240.315 17.32V20.84H238.907V8.424H240.059L240.251 9.592H240.315C240.571 9.21867 240.907 8.904 241.323 8.648C241.739 8.392 242.294 8.264 242.987 8.264ZM242.731 9.448C241.856 9.448 241.238 9.69333 240.875 10.184C240.523 10.6747 240.336 11.4213 240.315 12.424V12.696C240.315 13.752 240.486 14.568 240.827 15.144C241.179 15.7093 241.824 15.992 242.763 15.992C243.286 15.992 243.712 15.848 244.043 15.56C244.384 15.272 244.635 14.8827 244.795 14.392C244.966 13.8907 245.051 13.32 245.051 12.68C245.051 11.6987 244.859 10.9147 244.475 10.328C244.102 9.74133 243.52 9.448 242.731 9.448ZM257.951 8.424V17H256.687V11.528C256.687 11.304 256.692 11.0693 256.703 10.824C256.724 10.5787 256.745 10.3387 256.767 10.104H256.719L253.919 17H252.735L250.015 10.104H249.967C249.999 10.584 250.015 11.0747 250.015 11.576V17H248.751V8.424H250.623L253.327 15.32L256.079 8.424H257.951ZM259.344 8.424H260.848L262.704 13.304C262.864 13.7307 263.008 14.1413 263.136 14.536C263.264 14.92 263.36 15.288 263.424 15.64H263.488C263.552 15.3733 263.653 15.0267 263.792 14.6C263.931 14.1627 264.075 13.7253 264.224 13.288L265.968 8.424H267.488L263.792 18.184C263.493 18.9947 263.104 19.64 262.624 20.12C262.155 20.6 261.504 20.84 260.672 20.84C260.416 20.84 260.192 20.824 260 20.792C259.808 20.7707 259.643 20.744 259.504 20.712V19.592C259.621 19.6133 259.76 19.6347 259.92 19.656C260.091 19.6773 260.267 19.688 260.448 19.688C260.939 19.688 261.333 19.5493 261.632 19.272C261.941 18.9947 262.181 18.6267 262.352 18.168L262.8 17.032L259.344 8.424ZM275.06 17H273.636V9.592H271.108C270.969 11.3947 270.777 12.8507 270.532 13.96C270.287 15.0587 269.961 15.8587 269.556 16.36C269.151 16.8613 268.639 17.112 268.02 17.112C267.881 17.112 267.743 17.1013 267.604 17.08C267.476 17.0693 267.369 17.0427 267.284 17V15.944C267.348 15.9653 267.417 15.9813 267.492 15.992C267.567 16.0027 267.641 16.008 267.716 16.008C268.292 16.008 268.751 15.3947 269.092 14.168C269.444 12.9413 269.711 11.0267 269.892 8.424H275.06V17ZM279.11 8.424V13.656C279.11 13.784 279.105 13.976 279.094 14.232C279.083 14.488 279.067 14.744 279.046 15C279.035 15.256 279.025 15.4587 279.014 15.608L283.606 8.424H285.334V17H284.022V11.944C284.022 11.7733 284.022 11.5493 284.022 11.272C284.033 10.9947 284.043 10.7227 284.054 10.456C284.065 10.1787 284.075 9.97067 284.086 9.832L279.526 17H277.782V8.424H279.11ZM292.143 8.264C293.199 8.264 294.047 8.632 294.687 9.368C295.338 10.104 295.663 11.2133 295.663 12.696C295.663 14.1573 295.338 15.2667 294.687 16.024C294.047 16.7813 293.194 17.16 292.127 17.16C291.466 17.16 290.916 17.0373 290.479 16.792C290.052 16.536 289.716 16.2427 289.471 15.912H289.375C289.396 16.0933 289.418 16.3227 289.439 16.6C289.46 16.8773 289.471 17.1173 289.471 17.32V20.84H288.063V8.424H289.215L289.407 9.592H289.471C289.727 9.21867 290.063 8.904 290.479 8.648C290.895 8.392 291.45 8.264 292.143 8.264ZM291.887 9.448C291.012 9.448 290.394 9.69333 290.031 10.184C289.679 10.6747 289.492 11.4213 289.471 12.424V12.696C289.471 13.752 289.642 14.568 289.983 15.144C290.335 15.7093 290.98 15.992 291.919 15.992C292.442 15.992 292.868 15.848 293.199 15.56C293.54 15.272 293.791 14.8827 293.951 14.392C294.122 13.8907 294.207 13.32 294.207 12.68C294.207 11.6987 294.015 10.9147 293.631 10.328C293.258 9.74133 292.676 9.448 291.887 9.448ZM305.363 12.696C305.363 14.1147 305 15.2133 304.275 15.992C303.56 16.7707 302.59 17.16 301.363 17.16C300.606 17.16 299.928 16.9893 299.331 16.648C298.744 16.296 298.28 15.7893 297.939 15.128C297.598 14.456 297.427 13.6453 297.427 12.696C297.427 11.2773 297.784 10.184 298.499 9.416C299.214 8.648 300.184 8.264 301.411 8.264C302.19 8.264 302.872 8.44 303.459 8.792C304.056 9.13333 304.52 9.63467 304.851 10.296C305.192 10.9467 305.363 11.7467 305.363 12.696ZM298.883 12.696C298.883 13.7093 299.08 14.5147 299.475 15.112C299.88 15.6987 300.52 15.992 301.395 15.992C302.259 15.992 302.894 15.6987 303.299 15.112C303.704 14.5147 303.907 13.7093 303.907 12.696C303.907 11.6827 303.704 10.888 303.299 10.312C302.894 9.736 302.254 9.448 301.379 9.448C300.504 9.448 299.87 9.736 299.475 10.312C299.08 10.888 298.883 11.6827 298.883 12.696ZM314.49 10.584C314.49 11.1173 314.33 11.5333 314.01 11.832C313.69 12.1307 313.28 12.3333 312.778 12.44V12.504C313.312 12.5787 313.776 12.7707 314.17 13.08C314.565 13.3787 314.762 13.848 314.762 14.488C314.762 15.2133 314.49 15.816 313.946 16.296C313.413 16.7653 312.528 17 311.29 17H307.594V8.424H311.274C311.882 8.424 312.426 8.49333 312.906 8.632C313.397 8.76 313.781 8.984 314.058 9.304C314.346 9.61333 314.49 10.04 314.49 10.584ZM313.066 10.76C313.066 10.3547 312.917 10.0613 312.618 9.88C312.33 9.688 311.856 9.592 311.194 9.592H309.002V11.944H310.938C312.357 11.944 313.066 11.5493 313.066 10.76ZM313.306 14.488C313.306 13.9973 313.12 13.6453 312.746 13.432C312.373 13.2187 311.824 13.112 311.098 13.112H309.002V15.864H311.13C311.834 15.864 312.373 15.7627 312.746 15.56C313.12 15.3467 313.306 14.9893 313.306 14.488ZM320.061 8.28C321.106 8.28 321.88 8.50933 322.381 8.968C322.882 9.42667 323.133 10.1573 323.133 11.16V17H322.109L321.837 15.784H321.773C321.4 16.2533 321.005 16.6 320.589 16.824C320.184 17.048 319.618 17.16 318.893 17.16C318.114 17.16 317.469 16.9573 316.957 16.552C316.445 16.136 316.189 15.4907 316.189 14.616C316.189 13.7627 316.525 13.1067 317.197 12.648C317.869 12.1787 318.904 11.9227 320.301 11.88L321.757 11.832V11.32C321.757 10.6053 321.602 10.1093 321.293 9.832C320.984 9.55467 320.546 9.416 319.981 9.416C319.533 9.416 319.106 9.48533 318.701 9.624C318.296 9.752 317.917 9.90133 317.565 10.072L317.133 9.016C317.506 8.81333 317.949 8.64267 318.461 8.504C318.973 8.35467 319.506 8.28 320.061 8.28ZM321.741 12.808L320.477 12.856C319.41 12.8987 318.669 13.0693 318.253 13.368C317.848 13.6667 317.645 14.088 317.645 14.632C317.645 15.112 317.789 15.464 318.077 15.688C318.376 15.912 318.754 16.024 319.213 16.024C319.938 16.024 320.541 15.8267 321.021 15.432C321.501 15.0267 321.741 14.408 321.741 13.576V12.808ZM327.19 8.424V11.992H331.846V8.424H333.254V17H331.846V13.176H327.19V17H325.782V8.424H327.19ZM337.297 8.424V13.656C337.297 13.784 337.292 13.976 337.281 14.232C337.271 14.488 337.255 14.744 337.233 15C337.223 15.256 337.212 15.4587 337.201 15.608L341.793 8.424H343.521V17H342.209V11.944C342.209 11.7733 342.209 11.5493 342.209 11.272C342.22 10.9947 342.231 10.7227 342.241 10.456C342.252 10.1787 342.263 9.97067 342.273 9.832L337.713 17H335.969V8.424H337.297ZM349.563 8.264C350.299 8.264 350.928 8.424 351.451 8.744C351.984 9.064 352.389 9.51733 352.667 10.104C352.955 10.68 353.099 11.3573 353.099 12.136V12.984H347.227C347.248 13.9547 347.493 14.696 347.963 15.208C348.443 15.7093 349.109 15.96 349.963 15.96C350.507 15.96 350.987 15.912 351.403 15.816C351.829 15.7093 352.267 15.56 352.715 15.368V16.6C352.277 16.792 351.845 16.9307 351.419 17.016C350.992 17.112 350.485 17.16 349.899 17.16C349.088 17.16 348.368 16.9947 347.739 16.664C347.12 16.3333 346.635 15.8427 346.283 15.192C345.941 14.5307 345.771 13.7253 345.771 12.776C345.771 11.8373 345.925 11.032 346.235 10.36C346.555 9.688 346.997 9.17067 347.563 8.808C348.139 8.44533 348.805 8.264 349.563 8.264ZM349.547 9.416C348.875 9.416 348.341 9.63467 347.947 10.072C347.563 10.4987 347.333 11.096 347.259 11.864H351.627C351.616 11.1387 351.445 10.552 351.115 10.104C350.784 9.64533 350.261 9.416 349.547 9.416ZM360.219 8.424V13.656C360.219 13.784 360.214 13.976 360.203 14.232C360.193 14.488 360.177 14.744 360.155 15C360.145 15.256 360.134 15.4587 360.123 15.608L364.715 8.424H366.443V17H365.131V11.944C365.131 11.7733 365.131 11.5493 365.131 11.272C365.142 10.9947 365.153 10.7227 365.163 10.456C365.174 10.1787 365.185 9.97067 365.195 9.832L360.635 17H358.891V8.424H360.219ZM375.541 8.424V15.816H376.789V19.976H375.429V17H369.461V19.976H368.117V15.816H368.805C369.541 14.8027 370.09 13.6507 370.453 12.36C370.826 11.0587 371.018 9.74667 371.029 8.424H375.541ZM374.181 9.528H372.277C372.234 10.2533 372.122 11.0053 371.941 11.784C371.759 12.552 371.525 13.288 371.237 13.992C370.959 14.696 370.634 15.304 370.261 15.816H374.181V9.528ZM381.781 8.264C382.517 8.264 383.147 8.424 383.669 8.744C384.203 9.064 384.608 9.51733 384.885 10.104C385.173 10.68 385.317 11.3573 385.317 12.136V12.984H379.445C379.467 13.9547 379.712 14.696 380.181 15.208C380.661 15.7093 381.328 15.96 382.181 15.96C382.725 15.96 383.205 15.912 383.621 15.816C384.048 15.7093 384.485 15.56 384.933 15.368V16.6C384.496 16.792 384.064 16.9307 383.637 17.016C383.211 17.112 382.704 17.16 382.117 17.16C381.307 17.16 380.587 16.9947 379.957 16.664C379.339 16.3333 378.853 15.8427 378.501 15.192C378.16 14.5307 377.989 13.7253 377.989 12.776C377.989 11.8373 378.144 11.032 378.453 10.36C378.773 9.688 379.216 9.17067 379.781 8.808C380.357 8.44533 381.024 8.264 381.781 8.264ZM381.765 9.416C381.093 9.416 380.56 9.63467 380.165 10.072C379.781 10.4987 379.552 11.096 379.477 11.864H383.845C383.835 11.1387 383.664 10.552 383.333 10.104C383.003 9.64533 382.48 9.416 381.765 9.416ZM388.829 8.424V13.656C388.829 13.784 388.823 13.976 388.813 14.232C388.802 14.488 388.786 14.744 388.765 15C388.754 15.256 388.743 15.4587 388.733 15.608L393.325 8.424H395.053V17H393.741V11.944C393.741 11.7733 393.741 11.5493 393.741 11.272C393.751 10.9947 393.762 10.7227 393.773 10.456C393.783 10.1787 393.794 9.97067 393.805 9.832L389.245 17H387.501V8.424H388.829ZM408.639 8.424V17H407.231V9.624H402.799V17H401.391V8.424H408.639ZM414.688 8.264C415.424 8.264 416.053 8.424 416.576 8.744C417.109 9.064 417.514 9.51733 417.792 10.104C418.08 10.68 418.224 11.3573 418.224 12.136V12.984H412.352C412.373 13.9547 412.618 14.696 413.088 15.208C413.568 15.7093 414.234 15.96 415.088 15.96C415.632 15.96 416.112 15.912 416.528 15.816C416.954 15.7093 417.392 15.56 417.84 15.368V16.6C417.402 16.792 416.97 16.9307 416.544 17.016C416.117 17.112 415.61 17.16 415.024 17.16C414.213 17.16 413.493 16.9947 412.864 16.664C412.245 16.3333 411.76 15.8427 411.408 15.192C411.066 14.5307 410.896 13.7253 410.896 12.776C410.896 11.8373 411.05 11.032 411.36 10.36C411.68 9.688 412.122 9.17067 412.688 8.808C413.264 8.44533 413.93 8.264 414.688 8.264ZM414.672 9.416C414 9.416 413.466 9.63467 413.072 10.072C412.688 10.4987 412.458 11.096 412.384 11.864H416.752C416.741 11.1387 416.57 10.552 416.24 10.104C415.909 9.64533 415.386 9.416 414.672 9.416ZM424.487 8.264C425.543 8.264 426.391 8.632 427.031 9.368C427.682 10.104 428.007 11.2133 428.007 12.696C428.007 14.1573 427.682 15.2667 427.031 16.024C426.391 16.7813 425.538 17.16 424.471 17.16C423.81 17.16 423.26 17.0373 422.823 16.792C422.396 16.536 422.06 16.2427 421.815 15.912H421.719C421.74 16.0933 421.762 16.3227 421.783 16.6C421.804 16.8773 421.815 17.1173 421.815 17.32V20.84H420.407V8.424H421.559L421.751 9.592H421.815C422.071 9.21867 422.407 8.904 422.823 8.648C423.239 8.392 423.794 8.264 424.487 8.264ZM424.231 9.448C423.356 9.448 422.738 9.69333 422.375 10.184C422.023 10.6747 421.836 11.4213 421.815 12.424V12.696C421.815 13.752 421.986 14.568 422.327 15.144C422.679 15.7093 423.324 15.992 424.263 15.992C424.786 15.992 425.212 15.848 425.543 15.56C425.884 15.272 426.135 14.8827 426.295 14.392C426.466 13.8907 426.551 13.32 426.551 12.68C426.551 11.6987 426.359 10.9147 425.975 10.328C425.602 9.74133 425.02 9.448 424.231 9.448ZM433.563 8.264C434.299 8.264 434.928 8.424 435.451 8.744C435.984 9.064 436.389 9.51733 436.667 10.104C436.955 10.68 437.099 11.3573 437.099 12.136V12.984H431.227C431.248 13.9547 431.493 14.696 431.963 15.208C432.443 15.7093 433.109 15.96 433.963 15.96C434.507 15.96 434.987 15.912 435.403 15.816C435.829 15.7093 436.267 15.56 436.715 15.368V16.6C436.277 16.792 435.845 16.9307 435.419 17.016C434.992 17.112 434.485 17.16 433.899 17.16C433.088 17.16 432.368 16.9947 431.739 16.664C431.12 16.3333 430.635 15.8427 430.283 15.192C429.941 14.5307 429.771 13.7253 429.771 12.776C429.771 11.8373 429.925 11.032 430.235 10.36C430.555 9.688 430.997 9.17067 431.563 8.808C432.139 8.44533 432.805 8.264 433.563 8.264ZM433.547 9.416C432.875 9.416 432.341 9.63467 431.947 10.072C431.563 10.4987 431.333 11.096 431.259 11.864H435.627C435.616 11.1387 435.445 10.552 435.115 10.104C434.784 9.64533 434.261 9.416 433.547 9.416ZM445.65 8.424V15.816H446.898V19.976H445.538V17H439.57V19.976H438.226V15.816H438.914C439.65 14.8027 440.199 13.6507 440.562 12.36C440.935 11.0587 441.127 9.74667 441.138 8.424H445.65ZM444.29 9.528H442.386C442.343 10.2533 442.231 11.0053 442.05 11.784C441.869 12.552 441.634 13.288 441.346 13.992C441.069 14.696 440.743 15.304 440.37 15.816H444.29V9.528ZM459.436 8.424V17H458.028V9.624H453.596V17H452.188V8.424H459.436ZM469.628 12.696C469.628 14.1147 469.266 15.2133 468.541 15.992C467.826 16.7707 466.855 17.16 465.629 17.16C464.871 17.16 464.194 16.9893 463.597 16.648C463.01 16.296 462.546 15.7893 462.205 15.128C461.863 14.456 461.693 13.6453 461.693 12.696C461.693 11.2773 462.05 10.184 462.765 9.416C463.479 8.648 464.45 8.264 465.677 8.264C466.455 8.264 467.138 8.44 467.725 8.792C468.322 9.13333 468.786 9.63467 469.117 10.296C469.458 10.9467 469.628 11.7467 469.628 12.696ZM463.149 12.696C463.149 13.7093 463.346 14.5147 463.741 15.112C464.146 15.6987 464.786 15.992 465.661 15.992C466.525 15.992 467.159 15.6987 467.565 15.112C467.97 14.5147 468.173 13.7093 468.173 12.696C468.173 11.6827 467.97 10.888 467.565 10.312C467.159 9.736 466.519 9.448 465.645 9.448C464.77 9.448 464.135 9.736 463.741 10.312C463.346 10.888 463.149 11.6827 463.149 12.696ZM478.228 8.424V15.816H479.476V19.976H478.116V17H472.148V19.976H470.804V15.816H471.492C472.228 14.8027 472.777 13.6507 473.14 12.36C473.513 11.0587 473.705 9.74667 473.716 8.424H478.228ZM476.868 9.528H474.964C474.921 10.2533 474.809 11.0053 474.628 11.784C474.447 12.552 474.212 13.288 473.924 13.992C473.647 14.696 473.321 15.304 472.948 15.816H476.868V9.528ZM484.405 8.28C485.45 8.28 486.224 8.50933 486.725 8.968C487.226 9.42667 487.477 10.1573 487.477 11.16V17H486.453L486.181 15.784H486.117C485.744 16.2533 485.349 16.6 484.933 16.824C484.528 17.048 483.962 17.16 483.237 17.16C482.458 17.16 481.813 16.9573 481.301 16.552C480.789 16.136 480.533 15.4907 480.533 14.616C480.533 13.7627 480.869 13.1067 481.541 12.648C482.213 12.1787 483.248 11.9227 484.645 11.88L486.101 11.832V11.32C486.101 10.6053 485.946 10.1093 485.637 9.832C485.328 9.55467 484.89 9.416 484.325 9.416C483.877 9.416 483.45 9.48533 483.045 9.624C482.64 9.752 482.261 9.90133 481.909 10.072L481.477 9.016C481.85 8.81333 482.293 8.64267 482.805 8.504C483.317 8.35467 483.85 8.28 484.405 8.28ZM486.085 12.808L484.821 12.856C483.754 12.8987 483.013 13.0693 482.597 13.368C482.192 13.6667 481.989 14.088 481.989 14.632C481.989 15.112 482.133 15.464 482.421 15.688C482.72 15.912 483.098 16.024 483.557 16.024C484.282 16.024 484.885 15.8267 485.365 15.432C485.845 15.0267 486.085 14.408 486.085 13.576V12.808ZM491.358 8.424V11.544C491.358 12.5253 491.907 13.016 493.006 13.016C493.539 13.016 494.024 12.936 494.462 12.776C494.899 12.6053 495.347 12.3813 495.806 12.104V8.424H497.214V17H495.806V13.176C495.326 13.4853 494.851 13.7307 494.382 13.912C493.923 14.0827 493.368 14.168 492.718 14.168C491.843 14.168 491.16 13.9387 490.67 13.48C490.19 13.0213 489.95 12.408 489.95 11.64V8.424H491.358ZM503.25 8.264C503.986 8.264 504.615 8.424 505.138 8.744C505.671 9.064 506.077 9.51733 506.354 10.104C506.642 10.68 506.786 11.3573 506.786 12.136V12.984H500.914C500.935 13.9547 501.181 14.696 501.65 15.208C502.13 15.7093 502.797 15.96 503.65 15.96C504.194 15.96 504.674 15.912 505.09 15.816C505.517 15.7093 505.954 15.56 506.402 15.368V16.6C505.965 16.792 505.533 16.9307 505.106 17.016C504.679 17.112 504.173 17.16 503.586 17.16C502.775 17.16 502.055 16.9947 501.426 16.664C500.807 16.3333 500.322 15.8427 499.97 15.192C499.629 14.5307 499.458 13.7253 499.458 12.776C499.458 11.8373 499.613 11.032 499.922 10.36C500.242 9.688 500.685 9.17067 501.25 8.808C501.826 8.44533 502.493 8.264 503.25 8.264ZM503.234 9.416C502.562 9.416 502.029 9.63467 501.634 10.072C501.25 10.4987 501.021 11.096 500.946 11.864H505.314C505.303 11.1387 505.133 10.552 504.802 10.104C504.471 9.64533 503.949 9.416 503.234 9.416ZM510.297 8.424V13.656C510.297 13.784 510.292 13.976 510.281 14.232C510.271 14.488 510.255 14.744 510.233 15C510.223 15.256 510.212 15.4587 510.201 15.608L514.793 8.424H516.521V17H515.209V11.944C515.209 11.7733 515.209 11.5493 515.209 11.272C515.22 10.9947 515.231 10.7227 515.241 10.456C515.252 10.1787 515.263 9.97067 515.273 9.832L510.713 17H508.969V8.424H510.297ZM515.913 4.872C515.839 5.672 515.567 6.28 515.097 6.696C514.639 7.10133 513.903 7.304 512.889 7.304C511.844 7.304 511.103 7.10133 510.665 6.696C510.239 6.29067 509.999 5.68267 509.945 4.872H511.257C511.311 5.448 511.46 5.83733 511.705 6.04C511.961 6.232 512.367 6.328 512.921 6.328C513.412 6.328 513.796 6.22667 514.073 6.024C514.361 5.81067 514.532 5.42667 514.585 4.872H515.913Z" fill="#3D4853" fill-opacity="0.6"/>
<line x1="153" y1="12.5" x2="173" y2="12.5" stroke="#D6DEE8"/>
</svg>
