<svg width="614" height="26" viewBox="0 0 614 26" fill="none" xmlns="http://www.w3.org/2000/svg">
<path d="M13 0C5.824 0 0 5.824 0 13C0 20.176 5.824 26 13 26C20.176 26 26 20.176 26 13C26 5.824 20.176 0 13 0ZM10.4 19.5L3.9 13L5.733 11.167L10.4 15.821L20.267 5.954L22.1 7.8L10.4 19.5Z" fill="url(#paint0_linear)"/>
<path d="M33.552 17V5.576H42.128V17H40.704V6.84H34.992V17H33.552ZM49.1431 8.264C50.1991 8.264 51.0471 8.632 51.6871 9.368C52.3378 10.104 52.6631 11.2133 52.6631 12.696C52.6631 14.1573 52.3378 15.2667 51.6871 16.024C51.0471 16.7813 50.1938 17.16 49.1271 17.16C48.4658 17.16 47.9165 17.0373 47.4791 16.792C47.0525 16.536 46.7165 16.2427 46.4711 15.912H46.3751C46.3965 16.0933 46.4178 16.3227 46.4391 16.6C46.4605 16.8773 46.4711 17.1173 46.4711 17.32V20.84H45.0631V8.424H46.2151L46.4071 9.592H46.4711C46.7271 9.21867 47.0631 8.904 47.4791 8.648C47.8951 8.392 48.4498 8.264 49.1431 8.264ZM48.8871 9.448C48.0125 9.448 47.3938 9.69333 47.0311 10.184C46.6791 10.6747 46.4925 11.4213 46.4711 12.424V12.696C46.4711 13.752 46.6418 14.568 46.9831 15.144C47.3351 15.7093 47.9805 15.992 48.9191 15.992C49.4418 15.992 49.8685 15.848 50.1991 15.56C50.5405 15.272 50.7911 14.8827 50.9511 14.392C51.1218 13.8907 51.2071 13.32 51.2071 12.68C51.2071 11.6987 51.0151 10.9147 50.6311 10.328C50.2578 9.74133 49.6765 9.448 48.8871 9.448ZM62.3629 12.696C62.3629 14.1147 62.0002 15.2133 61.2749 15.992C60.5602 16.7707 59.5895 17.16 58.3629 17.16C57.6055 17.16 56.9282 16.9893 56.3309 16.648C55.7442 16.296 55.2802 15.7893 54.9389 15.128C54.5975 14.456 54.4269 13.6453 54.4269 12.696C54.4269 11.2773 54.7842 10.184 55.4989 9.416C56.2135 8.648 57.1842 8.264 58.4109 8.264C59.1895 8.264 59.8722 8.44 60.4589 8.792C61.0562 9.13333 61.5202 9.63467 61.8509 10.296C62.1922 10.9467 62.3629 11.7467 62.3629 12.696ZM55.8829 12.696C55.8829 13.7093 56.0802 14.5147 56.4749 15.112C56.8802 15.6987 57.5202 15.992 58.3949 15.992C59.2589 15.992 59.8935 15.6987 60.2989 15.112C60.7042 14.5147 60.9069 13.7093 60.9069 12.696C60.9069 11.6827 60.7042 10.888 60.2989 10.312C59.8935 9.736 59.2535 9.448 58.3789 9.448C57.5042 9.448 56.8695 9.736 56.4749 10.312C56.0802 10.888 55.8829 11.6827 55.8829 12.696ZM67.9064 8.264C68.6424 8.264 69.2717 8.424 69.7944 8.744C70.3277 9.064 70.733 9.51733 71.0104 10.104C71.2984 10.68 71.4424 11.3573 71.4424 12.136V12.984H65.5704C65.5917 13.9547 65.837 14.696 66.3064 15.208C66.7864 15.7093 67.453 15.96 68.3064 15.96C68.8504 15.96 69.3304 15.912 69.7464 15.816C70.173 15.7093 70.6104 15.56 71.0584 15.368V16.6C70.621 16.792 70.189 16.9307 69.7624 17.016C69.3357 17.112 68.829 17.16 68.2424 17.16C67.4317 17.16 66.7117 16.9947 66.0824 16.664C65.4637 16.3333 64.9784 15.8427 64.6264 15.192C64.285 14.5307 64.1144 13.7253 64.1144 12.776C64.1144 11.8373 64.269 11.032 64.5784 10.36C64.8984 9.688 65.341 9.17067 65.9064 8.808C66.4824 8.44533 67.149 8.264 67.9064 8.264ZM67.8904 9.416C67.2184 9.416 66.685 9.63467 66.2904 10.072C65.9064 10.4987 65.677 11.096 65.6024 11.864H69.9704C69.9597 11.1387 69.789 10.552 69.4584 10.104C69.1277 9.64533 68.605 9.416 67.8904 9.416ZM78.6976 8.424H80.2336L76.5696 12.552L80.5376 17H78.9056L75.0336 12.648V17H73.6256V8.424H75.0336V12.584L78.6976 8.424ZM88.0144 9.608H85.2144V17H83.8224V9.608H81.0544V8.424H88.0144V9.608ZM91.0318 8.424V13.656C91.0318 13.784 91.0264 13.976 91.0158 14.232C91.0051 14.488 90.9891 14.744 90.9678 15C90.9571 15.256 90.9464 15.4587 90.9358 15.608L95.5278 8.424H97.2558V17H95.9438V11.944C95.9438 11.7733 95.9438 11.5493 95.9438 11.272C95.9544 10.9947 95.9651 10.7227 95.9758 10.456C95.9864 10.1787 95.9971 9.97067 96.0078 9.832L91.4478 17H89.7038V8.424H91.0318ZM104.065 8.264C105.121 8.264 105.969 8.632 106.609 9.368C107.26 10.104 107.585 11.2133 107.585 12.696C107.585 14.1573 107.26 15.2667 106.609 16.024C105.969 16.7813 105.116 17.16 104.049 17.16C103.388 17.16 102.838 17.0373 102.401 16.792C101.974 16.536 101.638 16.2427 101.393 15.912H101.297C101.318 16.0933 101.34 16.3227 101.361 16.6C101.382 16.8773 101.393 17.1173 101.393 17.32V20.84H99.985V8.424H101.137L101.329 9.592H101.393C101.649 9.21867 101.985 8.904 102.401 8.648C102.817 8.392 103.372 8.264 104.065 8.264ZM103.809 9.448C102.934 9.448 102.316 9.69333 101.953 10.184C101.601 10.6747 101.414 11.4213 101.393 12.424V12.696C101.393 13.752 101.564 14.568 101.905 15.144C102.257 15.7093 102.902 15.992 103.841 15.992C104.364 15.992 104.79 15.848 105.121 15.56C105.462 15.272 105.713 14.8827 105.873 14.392C106.044 13.8907 106.129 13.32 106.129 12.68C106.129 11.6987 105.937 10.9147 105.553 10.328C105.18 9.74133 104.598 9.448 103.809 9.448ZM117.285 12.696C117.285 14.1147 116.922 15.2133 116.197 15.992C115.482 16.7707 114.511 17.16 113.285 17.16C112.527 17.16 111.85 16.9893 111.253 16.648C110.666 16.296 110.202 15.7893 109.861 15.128C109.519 14.456 109.349 13.6453 109.349 12.696C109.349 11.2773 109.706 10.184 110.421 9.416C111.135 8.648 112.106 8.264 113.333 8.264C114.111 8.264 114.794 8.44 115.381 8.792C115.978 9.13333 116.442 9.63467 116.773 10.296C117.114 10.9467 117.285 11.7467 117.285 12.696ZM110.805 12.696C110.805 13.7093 111.002 14.5147 111.397 15.112C111.802 15.6987 112.442 15.992 113.317 15.992C114.181 15.992 114.815 15.6987 115.221 15.112C115.626 14.5147 115.829 13.7093 115.829 12.696C115.829 11.6827 115.626 10.888 115.221 10.312C114.815 9.736 114.175 9.448 113.301 9.448C112.426 9.448 111.791 9.736 111.397 10.312C111.002 10.888 110.805 11.6827 110.805 12.696ZM126.412 10.584C126.412 11.1173 126.252 11.5333 125.932 11.832C125.612 12.1307 125.202 12.3333 124.7 12.44V12.504C125.234 12.5787 125.698 12.7707 126.092 13.08C126.487 13.3787 126.684 13.848 126.684 14.488C126.684 15.2133 126.412 15.816 125.868 16.296C125.335 16.7653 124.45 17 123.212 17H119.516V8.424H123.196C123.804 8.424 124.348 8.49333 124.828 8.632C125.319 8.76 125.703 8.984 125.98 9.304C126.268 9.61333 126.412 10.04 126.412 10.584ZM124.988 10.76C124.988 10.3547 124.839 10.0613 124.54 9.88C124.252 9.688 123.778 9.592 123.116 9.592H120.924V11.944H122.86C124.279 11.944 124.988 11.5493 124.988 10.76ZM125.228 14.488C125.228 13.9973 125.042 13.6453 124.668 13.432C124.295 13.2187 123.746 13.112 123.02 13.112H120.924V15.864H123.052C123.756 15.864 124.295 15.7627 124.668 15.56C125.042 15.3467 125.228 14.9893 125.228 14.488ZM131.983 8.28C133.028 8.28 133.802 8.50933 134.303 8.968C134.804 9.42667 135.055 10.1573 135.055 11.16V17H134.031L133.759 15.784H133.695C133.322 16.2533 132.927 16.6 132.511 16.824C132.106 17.048 131.54 17.16 130.815 17.16C130.036 17.16 129.391 16.9573 128.879 16.552C128.367 16.136 128.111 15.4907 128.111 14.616C128.111 13.7627 128.447 13.1067 129.119 12.648C129.791 12.1787 130.826 11.9227 132.223 11.88L133.679 11.832V11.32C133.679 10.6053 133.524 10.1093 133.215 9.832C132.906 9.55467 132.468 9.416 131.903 9.416C131.455 9.416 131.028 9.48533 130.623 9.624C130.218 9.752 129.839 9.90133 129.487 10.072L129.055 9.016C129.428 8.81333 129.871 8.64267 130.383 8.504C130.895 8.35467 131.428 8.28 131.983 8.28ZM133.663 12.808L132.399 12.856C131.332 12.8987 130.591 13.0693 130.175 13.368C129.77 13.6667 129.567 14.088 129.567 14.632C129.567 15.112 129.711 15.464 129.999 15.688C130.298 15.912 130.676 16.024 131.135 16.024C131.86 16.024 132.463 15.8267 132.943 15.432C133.423 15.0267 133.663 14.408 133.663 13.576V12.808ZM139.112 8.424V11.992H143.768V8.424H145.176V17H143.768V13.176H139.112V17H137.704V8.424H139.112ZM149.219 8.424V13.656C149.219 13.784 149.214 13.976 149.203 14.232C149.193 14.488 149.177 14.744 149.155 15C149.145 15.256 149.134 15.4587 149.123 15.608L153.715 8.424H155.443V17H154.131V11.944C154.131 11.7733 154.131 11.5493 154.131 11.272C154.142 10.9947 154.153 10.7227 154.163 10.456C154.174 10.1787 154.185 9.97067 154.195 9.832L149.635 17H147.891V8.424H149.219ZM161.485 8.264C162.221 8.264 162.85 8.424 163.373 8.744C163.906 9.064 164.311 9.51733 164.589 10.104C164.877 10.68 165.021 11.3573 165.021 12.136V12.984H159.149C159.17 13.9547 159.415 14.696 159.885 15.208C160.365 15.7093 161.031 15.96 161.885 15.96C162.429 15.96 162.909 15.912 163.325 15.816C163.751 15.7093 164.189 15.56 164.637 15.368V16.6C164.199 16.792 163.767 16.9307 163.341 17.016C162.914 17.112 162.407 17.16 161.821 17.16C161.01 17.16 160.29 16.9947 159.661 16.664C159.042 16.3333 158.557 15.8427 158.205 15.192C157.863 14.5307 157.693 13.7253 157.693 12.776C157.693 11.8373 157.847 11.032 158.157 10.36C158.477 9.688 158.919 9.17067 159.485 8.808C160.061 8.44533 160.727 8.264 161.485 8.264ZM161.469 9.416C160.797 9.416 160.263 9.63467 159.869 10.072C159.485 10.4987 159.255 11.096 159.181 11.864H163.549C163.538 11.1387 163.367 10.552 163.037 10.104C162.706 9.64533 162.183 9.416 161.469 9.416ZM172.141 8.424V13.656C172.141 13.784 172.136 13.976 172.125 14.232C172.114 14.488 172.098 14.744 172.077 15C172.066 15.256 172.056 15.4587 172.045 15.608L176.637 8.424H178.365V17H177.053V11.944C177.053 11.7733 177.053 11.5493 177.053 11.272C177.064 10.9947 177.074 10.7227 177.085 10.456C177.096 10.1787 177.106 9.97067 177.117 9.832L172.557 17H170.813V8.424H172.141ZM187.462 8.424V15.816H188.71V19.976H187.35V17H181.382V19.976H180.038V15.816H180.726C181.462 14.8027 182.012 13.6507 182.374 12.36C182.748 11.0587 182.94 9.74667 182.95 8.424H187.462ZM186.102 9.528H184.198C184.156 10.2533 184.044 11.0053 183.862 11.784C183.681 12.552 183.446 13.288 183.158 13.992C182.881 14.696 182.556 15.304 182.182 15.816H186.102V9.528ZM193.703 8.264C194.439 8.264 195.069 8.424 195.591 8.744C196.125 9.064 196.53 9.51733 196.807 10.104C197.095 10.68 197.239 11.3573 197.239 12.136V12.984H191.367C191.389 13.9547 191.634 14.696 192.103 15.208C192.583 15.7093 193.25 15.96 194.103 15.96C194.647 15.96 195.127 15.912 195.543 15.816C195.97 15.7093 196.407 15.56 196.855 15.368V16.6C196.418 16.792 195.986 16.9307 195.559 17.016C195.133 17.112 194.626 17.16 194.039 17.16C193.229 17.16 192.509 16.9947 191.879 16.664C191.261 16.3333 190.775 15.8427 190.423 15.192C190.082 14.5307 189.911 13.7253 189.911 12.776C189.911 11.8373 190.066 11.032 190.375 10.36C190.695 9.688 191.138 9.17067 191.703 8.808C192.279 8.44533 192.946 8.264 193.703 8.264ZM193.687 9.416C193.015 9.416 192.482 9.63467 192.087 10.072C191.703 10.4987 191.474 11.096 191.399 11.864H195.767C195.757 11.1387 195.586 10.552 195.255 10.104C194.925 9.64533 194.402 9.416 193.687 9.416ZM200.751 8.424V13.656C200.751 13.784 200.745 13.976 200.735 14.232C200.724 14.488 200.708 14.744 200.687 15C200.676 15.256 200.665 15.4587 200.655 15.608L205.247 8.424H206.975V17H205.663V11.944C205.663 11.7733 205.663 11.5493 205.663 11.272C205.673 10.9947 205.684 10.7227 205.695 10.456C205.705 10.1787 205.716 9.97067 205.727 9.832L201.167 17H199.423V8.424H200.751Z" fill="#3D4853"/>
<circle cx="262" cy="13" r="13" fill="#DAE3EF"/>
<path d="M264.982 17.9771V16.7771H259.814C260.214 16.4251 260.598 16.0731 260.966 15.7051C261.334 15.3371 261.83 14.7931 262.454 14.0731C263.686 12.6171 264.518 10.9371 264.518 9.48111C264.518 8.71311 264.246 8.05711 263.718 7.49711C263.19 6.93711 262.422 6.64911 261.446 6.64911C259.83 6.64911 258.502 7.65711 258.246 9.27311L259.334 9.72111C259.542 8.56911 260.374 7.92911 261.334 7.92911C262.502 7.92911 263.158 8.69711 263.158 9.73711C263.158 10.7771 262.55 12.0411 261.35 13.5451C260.726 14.3131 259.67 15.4491 258.15 16.9371V17.9771H264.982Z" fill="white"/>
<circle cx="262" cy="13" r="13" fill="#FE645A"/>
<path d="M264.982 17.9771V16.7771H259.814C260.214 16.4251 260.598 16.0731 260.966 15.7051C261.334 15.3371 261.83 14.7931 262.454 14.0731C263.686 12.6171 264.518 10.9371 264.518 9.48111C264.518 8.71311 264.246 8.05711 263.718 7.49711C263.19 6.93711 262.422 6.64911 261.446 6.64911C259.83 6.64911 258.502 7.65711 258.246 9.27311L259.334 9.72111C259.542 8.56911 260.374 7.92911 261.334 7.92911C262.502 7.92911 263.158 8.69711 263.158 9.73711C263.158 10.7771 262.55 12.0411 261.35 13.5451C260.726 14.3131 259.67 15.4491 258.15 16.9371V17.9771H264.982Z" fill="white"/>
<path d="M288.136 5.416V6.824C289.373 6.84533 290.349 7.048 291.064 7.432C291.779 7.816 292.285 8.328 292.584 8.968C292.883 9.59733 293.032 10.3013 293.032 11.08C293.032 11.592 292.952 12.104 292.792 12.616C292.643 13.1173 292.381 13.576 292.008 13.992C291.635 14.3973 291.133 14.728 290.504 14.984C289.875 15.24 289.085 15.3787 288.136 15.4V17.16H286.712V15.4C285.741 15.3787 284.936 15.24 284.296 14.984C283.667 14.7173 283.171 14.376 282.808 13.96C282.445 13.5333 282.189 13.0693 282.04 12.568C281.891 12.0667 281.816 11.5707 281.816 11.08C281.816 10.3227 281.965 9.62933 282.264 9C282.573 8.36 283.085 7.84267 283.8 7.448C284.515 7.05333 285.485 6.84533 286.712 6.824V5.416H288.136ZM286.712 8.04C285.859 8.06133 285.176 8.2 284.664 8.456C284.163 8.712 283.805 9.064 283.592 9.512C283.379 9.94933 283.272 10.4667 283.272 11.064C283.272 12.0027 283.544 12.7547 284.088 13.32C284.643 13.8747 285.517 14.1733 286.712 14.216V8.04ZM288.136 8.04V14.216C289.373 14.1733 290.253 13.8693 290.776 13.304C291.309 12.728 291.576 11.9813 291.576 11.064C291.576 10.456 291.469 9.93333 291.256 9.496C291.043 9.048 290.685 8.70133 290.184 8.456C289.683 8.2 289 8.06133 288.136 8.04ZM302.675 12.696C302.675 14.1147 302.313 15.2133 301.587 15.992C300.873 16.7707 299.902 17.16 298.675 17.16C297.918 17.16 297.241 16.9893 296.643 16.648C296.057 16.296 295.593 15.7893 295.251 15.128C294.91 14.456 294.739 13.6453 294.739 12.696C294.739 11.2773 295.097 10.184 295.811 9.416C296.526 8.648 297.497 8.264 298.723 8.264C299.502 8.264 300.185 8.44 300.771 8.792C301.369 9.13333 301.833 9.63467 302.163 10.296C302.505 10.9467 302.675 11.7467 302.675 12.696ZM296.195 12.696C296.195 13.7093 296.393 14.5147 296.787 15.112C297.193 15.6987 297.833 15.992 298.707 15.992C299.571 15.992 300.206 15.6987 300.611 15.112C301.017 14.5147 301.219 13.7093 301.219 12.696C301.219 11.6827 301.017 10.888 300.611 10.312C300.206 9.736 299.566 9.448 298.691 9.448C297.817 9.448 297.182 9.736 296.787 10.312C296.393 10.888 296.195 11.6827 296.195 12.696ZM308.987 8.264C310.043 8.264 310.891 8.632 311.531 9.368C312.182 10.104 312.507 11.2133 312.507 12.696C312.507 14.1573 312.182 15.2667 311.531 16.024C310.891 16.7813 310.038 17.16 308.971 17.16C308.31 17.16 307.76 17.0373 307.323 16.792C306.896 16.536 306.56 16.2427 306.315 15.912H306.219C306.24 16.0933 306.262 16.3227 306.283 16.6C306.304 16.8773 306.315 17.1173 306.315 17.32V20.84H304.907V8.424H306.059L306.251 9.592H306.315C306.571 9.21867 306.907 8.904 307.323 8.648C307.739 8.392 308.294 8.264 308.987 8.264ZM308.731 9.448C307.856 9.448 307.238 9.69333 306.875 10.184C306.523 10.6747 306.336 11.4213 306.315 12.424V12.696C306.315 13.752 306.486 14.568 306.827 15.144C307.179 15.7093 307.824 15.992 308.763 15.992C309.286 15.992 309.712 15.848 310.043 15.56C310.384 15.272 310.635 14.8827 310.795 14.392C310.966 13.8907 311.051 13.32 311.051 12.68C311.051 11.6987 310.859 10.9147 310.475 10.328C310.102 9.74133 309.52 9.448 308.731 9.448ZM323.951 8.424V17H322.687V11.528C322.687 11.304 322.692 11.0693 322.703 10.824C322.724 10.5787 322.745 10.3387 322.767 10.104H322.719L319.919 17H318.735L316.015 10.104H315.967C315.999 10.584 316.015 11.0747 316.015 11.576V17H314.751V8.424H316.623L319.327 15.32L322.079 8.424H323.951ZM325.344 8.424H326.848L328.704 13.304C328.864 13.7307 329.008 14.1413 329.136 14.536C329.264 14.92 329.36 15.288 329.424 15.64H329.488C329.552 15.3733 329.653 15.0267 329.792 14.6C329.931 14.1627 330.075 13.7253 330.224 13.288L331.968 8.424H333.488L329.792 18.184C329.493 18.9947 329.104 19.64 328.624 20.12C328.155 20.6 327.504 20.84 326.672 20.84C326.416 20.84 326.192 20.824 326 20.792C325.808 20.7707 325.643 20.744 325.504 20.712V19.592C325.621 19.6133 325.76 19.6347 325.92 19.656C326.091 19.6773 326.267 19.688 326.448 19.688C326.939 19.688 327.333 19.5493 327.632 19.272C327.941 18.9947 328.181 18.6267 328.352 18.168L328.8 17.032L325.344 8.424ZM341.06 17H339.636V9.592H337.108C336.969 11.3947 336.777 12.8507 336.532 13.96C336.287 15.0587 335.961 15.8587 335.556 16.36C335.151 16.8613 334.639 17.112 334.02 17.112C333.881 17.112 333.743 17.1013 333.604 17.08C333.476 17.0693 333.369 17.0427 333.284 17V15.944C333.348 15.9653 333.417 15.9813 333.492 15.992C333.567 16.0027 333.641 16.008 333.716 16.008C334.292 16.008 334.751 15.3947 335.092 14.168C335.444 12.9413 335.711 11.0267 335.892 8.424H341.06V17ZM345.11 8.424V13.656C345.11 13.784 345.105 13.976 345.094 14.232C345.083 14.488 345.067 14.744 345.046 15C345.035 15.256 345.025 15.4587 345.014 15.608L349.606 8.424H351.334V17H350.022V11.944C350.022 11.7733 350.022 11.5493 350.022 11.272C350.033 10.9947 350.043 10.7227 350.054 10.456C350.065 10.1787 350.075 9.97067 350.086 9.832L345.526 17H343.782V8.424H345.11ZM358.143 8.264C359.199 8.264 360.047 8.632 360.687 9.368C361.338 10.104 361.663 11.2133 361.663 12.696C361.663 14.1573 361.338 15.2667 360.687 16.024C360.047 16.7813 359.194 17.16 358.127 17.16C357.466 17.16 356.916 17.0373 356.479 16.792C356.052 16.536 355.716 16.2427 355.471 15.912H355.375C355.396 16.0933 355.418 16.3227 355.439 16.6C355.46 16.8773 355.471 17.1173 355.471 17.32V20.84H354.063V8.424H355.215L355.407 9.592H355.471C355.727 9.21867 356.063 8.904 356.479 8.648C356.895 8.392 357.45 8.264 358.143 8.264ZM357.887 9.448C357.012 9.448 356.394 9.69333 356.031 10.184C355.679 10.6747 355.492 11.4213 355.471 12.424V12.696C355.471 13.752 355.642 14.568 355.983 15.144C356.335 15.7093 356.98 15.992 357.919 15.992C358.442 15.992 358.868 15.848 359.199 15.56C359.54 15.272 359.791 14.8827 359.951 14.392C360.122 13.8907 360.207 13.32 360.207 12.68C360.207 11.6987 360.015 10.9147 359.631 10.328C359.258 9.74133 358.676 9.448 357.887 9.448ZM371.363 12.696C371.363 14.1147 371 15.2133 370.275 15.992C369.56 16.7707 368.59 17.16 367.363 17.16C366.606 17.16 365.928 16.9893 365.331 16.648C364.744 16.296 364.28 15.7893 363.939 15.128C363.598 14.456 363.427 13.6453 363.427 12.696C363.427 11.2773 363.784 10.184 364.499 9.416C365.214 8.648 366.184 8.264 367.411 8.264C368.19 8.264 368.872 8.44 369.459 8.792C370.056 9.13333 370.52 9.63467 370.851 10.296C371.192 10.9467 371.363 11.7467 371.363 12.696ZM364.883 12.696C364.883 13.7093 365.08 14.5147 365.475 15.112C365.88 15.6987 366.52 15.992 367.395 15.992C368.259 15.992 368.894 15.6987 369.299 15.112C369.704 14.5147 369.907 13.7093 369.907 12.696C369.907 11.6827 369.704 10.888 369.299 10.312C368.894 9.736 368.254 9.448 367.379 9.448C366.504 9.448 365.87 9.736 365.475 10.312C365.08 10.888 364.883 11.6827 364.883 12.696ZM380.49 10.584C380.49 11.1173 380.33 11.5333 380.01 11.832C379.69 12.1307 379.28 12.3333 378.778 12.44V12.504C379.312 12.5787 379.776 12.7707 380.17 13.08C380.565 13.3787 380.762 13.848 380.762 14.488C380.762 15.2133 380.49 15.816 379.946 16.296C379.413 16.7653 378.528 17 377.29 17H373.594V8.424H377.274C377.882 8.424 378.426 8.49333 378.906 8.632C379.397 8.76 379.781 8.984 380.058 9.304C380.346 9.61333 380.49 10.04 380.49 10.584ZM379.066 10.76C379.066 10.3547 378.917 10.0613 378.618 9.88C378.33 9.688 377.856 9.592 377.194 9.592H375.002V11.944H376.938C378.357 11.944 379.066 11.5493 379.066 10.76ZM379.306 14.488C379.306 13.9973 379.12 13.6453 378.746 13.432C378.373 13.2187 377.824 13.112 377.098 13.112H375.002V15.864H377.13C377.834 15.864 378.373 15.7627 378.746 15.56C379.12 15.3467 379.306 14.9893 379.306 14.488ZM387.885 8.424H389.421L385.757 12.552L389.725 17H388.093L384.221 12.648V17H382.813V8.424H384.221V12.584L387.885 8.424ZM394.53 8.28C395.575 8.28 396.349 8.50933 396.85 8.968C397.351 9.42667 397.602 10.1573 397.602 11.16V17H396.578L396.306 15.784H396.242C395.869 16.2533 395.474 16.6 395.058 16.824C394.653 17.048 394.087 17.16 393.362 17.16C392.583 17.16 391.938 16.9573 391.426 16.552C390.914 16.136 390.658 15.4907 390.658 14.616C390.658 13.7627 390.994 13.1067 391.666 12.648C392.338 12.1787 393.373 11.9227 394.77 11.88L396.226 11.832V11.32C396.226 10.6053 396.071 10.1093 395.762 9.832C395.453 9.55467 395.015 9.416 394.45 9.416C394.002 9.416 393.575 9.48533 393.17 9.624C392.765 9.752 392.386 9.90133 392.034 10.072L391.602 9.016C391.975 8.81333 392.418 8.64267 392.93 8.504C393.442 8.35467 393.975 8.28 394.53 8.28ZM396.21 12.808L394.946 12.856C393.879 12.8987 393.138 13.0693 392.722 13.368C392.317 13.6667 392.114 14.088 392.114 14.632C392.114 15.112 392.258 15.464 392.546 15.688C392.845 15.912 393.223 16.024 393.682 16.024C394.407 16.024 395.01 15.8267 395.49 15.432C395.97 15.0267 396.21 14.408 396.21 13.576V12.808ZM405.188 8.424V13.656C405.188 13.784 405.183 13.976 405.172 14.232C405.161 14.488 405.145 14.744 405.124 15C405.113 15.256 405.103 15.4587 405.092 15.608L409.684 8.424H411.412V17H410.1V11.944C410.1 11.7733 410.1 11.5493 410.1 11.272C410.111 10.9947 410.121 10.7227 410.132 10.456C410.143 10.1787 410.153 9.97067 410.164 9.832L405.604 17H403.86V8.424H405.188ZM420.509 8.424V15.816H421.757V19.976H420.397V17H414.429V19.976H413.085V15.816H413.773C414.509 14.8027 415.059 13.6507 415.421 12.36C415.795 11.0587 415.987 9.74667 415.997 8.424H420.509ZM419.149 9.528H417.245C417.203 10.2533 417.091 11.0053 416.909 11.784C416.728 12.552 416.493 13.288 416.205 13.992C415.928 14.696 415.603 15.304 415.229 15.816H419.149V9.528ZM426.75 8.264C427.486 8.264 428.115 8.424 428.638 8.744C429.171 9.064 429.577 9.51733 429.854 10.104C430.142 10.68 430.286 11.3573 430.286 12.136V12.984H424.414C424.435 13.9547 424.681 14.696 425.15 15.208C425.63 15.7093 426.297 15.96 427.15 15.96C427.694 15.96 428.174 15.912 428.59 15.816C429.017 15.7093 429.454 15.56 429.902 15.368V16.6C429.465 16.792 429.033 16.9307 428.606 17.016C428.179 17.112 427.673 17.16 427.086 17.16C426.275 17.16 425.555 16.9947 424.926 16.664C424.307 16.3333 423.822 15.8427 423.47 15.192C423.129 14.5307 422.958 13.7253 422.958 12.776C422.958 11.8373 423.113 11.032 423.422 10.36C423.742 9.688 424.185 9.17067 424.75 8.808C425.326 8.44533 425.993 8.264 426.75 8.264ZM426.734 9.416C426.062 9.416 425.529 9.63467 425.134 10.072C424.75 10.4987 424.521 11.096 424.446 11.864H428.814C428.803 11.1387 428.633 10.552 428.302 10.104C427.971 9.64533 427.449 9.416 426.734 9.416ZM433.797 8.424V13.656C433.797 13.784 433.792 13.976 433.781 14.232C433.771 14.488 433.755 14.744 433.733 15C433.723 15.256 433.712 15.4587 433.701 15.608L438.293 8.424H440.021V17H438.709V11.944C438.709 11.7733 438.709 11.5493 438.709 11.272C438.72 10.9947 438.731 10.7227 438.741 10.456C438.752 10.1787 438.763 9.97067 438.773 9.832L434.213 17H432.469V8.424H433.797Z" fill="#3D4853"/>
<circle cx="494" cy="13" r="13" fill="#DAE3EF"/>
<path d="M493.343 18.1371C494.367 18.1371 495.215 17.8491 495.871 17.2571C496.527 16.6651 496.863 15.8651 496.863 14.8891C496.863 13.5291 496.031 12.3931 494.687 12.1851V12.1371C495.823 11.6731 496.431 10.6811 496.431 9.44911C496.431 7.70511 495.215 6.61711 493.343 6.61711C491.887 6.61711 490.735 7.27311 490.223 8.40911L490.943 9.28911C491.471 8.36111 492.239 7.89711 493.247 7.89711C494.383 7.89711 495.071 8.56911 495.071 9.67311C495.071 10.2331 494.879 10.6971 494.479 11.0651C494.095 11.4331 493.647 11.6091 493.135 11.6091H492.335V12.8891H493.215C494.575 12.8891 495.503 13.6411 495.503 14.8411C495.503 16.0091 494.655 16.8571 493.295 16.8571C492.223 16.8571 491.215 16.3131 490.687 15.3051L489.951 16.2171C490.527 17.4491 491.759 18.1371 493.343 18.1371Z" fill="white"/>
<path d="M514.552 17V5.576H523.128V17H521.704V6.84H515.992V17H514.552ZM533.519 12.696C533.519 14.1147 533.156 15.2133 532.431 15.992C531.716 16.7707 530.746 17.16 529.519 17.16C528.762 17.16 528.084 16.9893 527.487 16.648C526.9 16.296 526.436 15.7893 526.095 15.128C525.754 14.456 525.583 13.6453 525.583 12.696C525.583 11.2773 525.94 10.184 526.655 9.416C527.37 8.648 528.34 8.264 529.567 8.264C530.346 8.264 531.028 8.44 531.615 8.792C532.212 9.13333 532.676 9.63467 533.007 10.296C533.348 10.9467 533.519 11.7467 533.519 12.696ZM527.039 12.696C527.039 13.7093 527.236 14.5147 527.631 15.112C528.036 15.6987 528.676 15.992 529.551 15.992C530.415 15.992 531.05 15.6987 531.455 15.112C531.86 14.5147 532.063 13.7093 532.063 12.696C532.063 11.6827 531.86 10.888 531.455 10.312C531.05 9.736 530.41 9.448 529.535 9.448C528.66 9.448 528.026 9.736 527.631 10.312C527.236 10.888 527.039 11.6827 527.039 12.696ZM542.119 8.424V15.816H543.367V19.976H542.007V17H536.039V19.976H534.695V15.816H535.383C536.119 14.8027 536.668 13.6507 537.031 12.36C537.404 11.0587 537.596 9.74667 537.607 8.424H542.119ZM540.759 9.528H538.855C538.812 10.2533 538.7 11.0053 538.519 11.784C538.337 12.552 538.103 13.288 537.815 13.992C537.537 14.696 537.212 15.304 536.839 15.816H540.759V9.528ZM548.296 8.28C549.341 8.28 550.114 8.50933 550.616 8.968C551.117 9.42667 551.368 10.1573 551.368 11.16V17H550.344L550.072 15.784H550.008C549.634 16.2533 549.24 16.6 548.824 16.824C548.418 17.048 547.853 17.16 547.128 17.16C546.349 17.16 545.704 16.9573 545.192 16.552C544.68 16.136 544.424 15.4907 544.424 14.616C544.424 13.7627 544.76 13.1067 545.432 12.648C546.104 12.1787 547.138 11.9227 548.536 11.88L549.992 11.832V11.32C549.992 10.6053 549.837 10.1093 549.528 9.832C549.218 9.55467 548.781 9.416 548.216 9.416C547.768 9.416 547.341 9.48533 546.936 9.624C546.53 9.752 546.152 9.90133 545.799 10.072L545.368 9.016C545.741 8.81333 546.184 8.64267 546.696 8.504C547.208 8.35467 547.741 8.28 548.296 8.28ZM549.976 12.808L548.712 12.856C547.645 12.8987 546.904 13.0693 546.488 13.368C546.082 13.6667 545.88 14.088 545.88 14.632C545.88 15.112 546.024 15.464 546.312 15.688C546.61 15.912 546.989 16.024 547.448 16.024C548.173 16.024 548.776 15.8267 549.256 15.432C549.736 15.0267 549.976 14.408 549.976 13.576V12.808ZM555.248 8.424V11.544C555.248 12.5253 555.798 13.016 556.896 13.016C557.43 13.016 557.915 12.936 558.352 12.776C558.79 12.6053 559.238 12.3813 559.696 12.104V8.424H561.104V17H559.696V13.176C559.216 13.4853 558.742 13.7307 558.272 13.912C557.814 14.0827 557.259 14.168 556.608 14.168C555.734 14.168 555.051 13.9387 554.56 13.48C554.08 13.0213 553.84 12.408 553.84 11.64V8.424H555.248ZM567.077 8.28C568.122 8.28 568.895 8.50933 569.397 8.968C569.898 9.42667 570.149 10.1573 570.149 11.16V17H569.125L568.853 15.784H568.789C568.415 16.2533 568.021 16.6 567.605 16.824C567.199 17.048 566.634 17.16 565.909 17.16C565.13 17.16 564.485 16.9573 563.973 16.552C563.461 16.136 563.205 15.4907 563.205 14.616C563.205 13.7627 563.541 13.1067 564.213 12.648C564.885 12.1787 565.919 11.9227 567.317 11.88L568.773 11.832V11.32C568.773 10.6053 568.618 10.1093 568.309 9.832C567.999 9.55467 567.562 9.416 566.997 9.416C566.549 9.416 566.122 9.48533 565.717 9.624C565.311 9.752 564.933 9.90133 564.581 10.072L564.149 9.016C564.522 8.81333 564.965 8.64267 565.477 8.504C565.989 8.35467 566.522 8.28 567.077 8.28ZM568.757 12.808L567.493 12.856C566.426 12.8987 565.685 13.0693 565.269 13.368C564.863 13.6667 564.661 14.088 564.661 14.632C564.661 15.112 564.805 15.464 565.093 15.688C565.391 15.912 565.77 16.024 566.229 16.024C566.954 16.024 567.557 15.8267 568.037 15.432C568.517 15.0267 568.757 14.408 568.757 13.576V12.808ZM577.735 8.424V13.656C577.735 13.784 577.73 13.976 577.719 14.232C577.708 14.488 577.692 14.744 577.671 15C577.66 15.256 577.65 15.4587 577.639 15.608L582.231 8.424H583.959V17H582.647V11.944C582.647 11.7733 582.647 11.5493 582.647 11.272C582.658 10.9947 582.668 10.7227 582.679 10.456C582.69 10.1787 582.7 9.97067 582.711 9.832L578.151 17H576.407V8.424H577.735ZM593.056 8.424V15.816H594.304V19.976H592.944V17H586.976V19.976H585.632V15.816H586.32C587.056 14.8027 587.605 13.6507 587.968 12.36C588.341 11.0587 588.533 9.74667 588.544 8.424H593.056ZM591.696 9.528H589.792C589.749 10.2533 589.637 11.0053 589.456 11.784C589.275 12.552 589.04 13.288 588.752 13.992C588.475 14.696 588.149 15.304 587.776 15.816H591.696V9.528ZM599.297 8.264C600.033 8.264 600.662 8.424 601.185 8.744C601.718 9.064 602.124 9.51733 602.401 10.104C602.689 10.68 602.833 11.3573 602.833 12.136V12.984H596.961C596.982 13.9547 597.228 14.696 597.697 15.208C598.177 15.7093 598.844 15.96 599.697 15.96C600.241 15.96 600.721 15.912 601.137 15.816C601.564 15.7093 602.001 15.56 602.449 15.368V16.6C602.012 16.792 601.58 16.9307 601.153 17.016C600.726 17.112 600.22 17.16 599.633 17.16C598.822 17.16 598.102 16.9947 597.473 16.664C596.854 16.3333 596.369 15.8427 596.017 15.192C595.676 14.5307 595.505 13.7253 595.505 12.776C595.505 11.8373 595.66 11.032 595.969 10.36C596.289 9.688 596.732 9.17067 597.297 8.808C597.873 8.44533 598.54 8.264 599.297 8.264ZM599.281 9.416C598.609 9.416 598.076 9.63467 597.681 10.072C597.297 10.4987 597.068 11.096 596.993 11.864H601.361C601.35 11.1387 601.18 10.552 600.849 10.104C600.518 9.64533 599.996 9.416 599.281 9.416ZM606.344 8.424V13.656C606.344 13.784 606.339 13.976 606.328 14.232C606.318 14.488 606.302 14.744 606.28 15C606.27 15.256 606.259 15.4587 606.248 15.608L610.84 8.424H612.568V17H611.256V11.944C611.256 11.7733 611.256 11.5493 611.256 11.272C611.267 10.9947 611.278 10.7227 611.288 10.456C611.299 10.1787 611.31 9.97067 611.32 9.832L606.76 17H605.016V8.424H606.344Z" fill="#3D4853" fill-opacity="0.6"/>
<line x1="219" y1="12.5" x2="239" y2="12.5" stroke="#D6DEE8"/>
<line x1="452" y1="12.5" x2="472" y2="12.5" stroke="#D6DEE8"/>
<defs>
<linearGradient id="paint0_linear" x1="13" y1="1.93715e-07" x2="6.5" y2="30.5" gradientUnits="userSpaceOnUse">
<stop stop-color="#00A460"/>
<stop offset="1" stop-color="#87C3AA"/>
</linearGradient>
</defs>
</svg>
