<?xml version="1.0" encoding="utf-8"?>
<!-- Svg Vector Icons : http://www.onlinewebfonts.com/icon -->
<!DOCTYPE svg PUBLIC "-//W3C//DTD SVG 1.1//EN" "http://www.w3.org/Graphics/SVG/1.1/DTD/svg11.dtd">
<svg version="1.1" xmlns="http://www.w3.org/2000/svg" xmlns:xlink="http://www.w3.org/1999/xlink" x="0px" y="0px" viewBox="0 0 1000 1000" enable-background="new 0 0 1000 1000" xml:space="preserve">
<metadata> Svg Vector Icons : http://www.onlinewebfonts.com/icon </metadata>
<g><g transform="translate(0.000000,511.000000) scale(0.100000,-0.100000)"><path d="M4501,4989.1C2600.9,4792.4,957.3,3477.5,352.1,1669.6C16,656.1,16-424.7,352.1-1448.2C469.2-1804.3,773-2407,984.7-2700.8c844.2-1182.9,2111.8-1925,3538.7-2069.4c1805.5-181.8,3598.5,682.3,4592.1,2216.3c931.4,1436.9,1040.9,3274.7,288.9,4811.2C8923.7,3233.5,8174.1,3993,7202.9,4481.1C6346.2,4909.5,5427.4,5083.8,4501,4989.1z M5360.1,4765C7352.3,4593.2,9010.8,3196.1,9494,1281.1c139.4-550.4,179.3-1265.1,99.6-1815.4c-191.8-1304.9-916.4-2462.9-2002.2-3192.5c-799.4-537.9-1641.1-794.4-2614.8-794.4c-864.1,0-1628.6,206.7-2353.3,632.5C979.7-2917.5,93.2-1052.3,382,832.9c323.7,2119.2,2074.4,3755.3,4206.1,3934.6C4921.8,4794.9,5031.4,4794.9,5360.1,4765z"/><path d="M4182.2,2991.9c-52.3-54.8-54.8-79.7-54.8-485.6v-425.8l-737.1-7.5l-737.1-7.5l-47.3-59.8c-69.7-87.2-62.3-211.7,17.4-273.9c52.3-42.3,102.1-52.3,236.6-52.3h171.8l5-2126.7c7.5-2114.2,7.5-2129.2,59.8-2198.9c27.4-37.4,89.7-94.6,134.5-127l82.2-54.8H4999h1685.9l82.2,54.8c44.8,32.4,107.1,89.6,134.5,127c52.3,69.7,52.3,84.7,59.8,2198.9l5,2126.7h171.8c219.1,0,301.3,54.8,301.3,199.2c0,74.7-14.9,107.1-64.7,146.9c-64.8,49.8-97.1,52.3-769.5,52.3H5903l-12.5,423.3c-12.5,400.9-14.9,428.3-69.7,485.6l-57.3,62.3H4999h-764.5L4182.2,2991.9z M5497.1,2364.4V2078H4999H4501v286.4v286.4H4999h498.1V2364.4z M6567.9-374.9v-2054.5H4999H3430.1v2054.5v2054.5H4999h1568.9V-374.9z"/><path d="M4134.9,770.6c-39.8-17.4-82.2-49.8-92.1-74.7c-7.5-22.4-14.9-560.3-14.9-1195.3v-1155.5l64.7-49.8c37.4-29.9,92.1-52.3,122-52.3c29.9,0,84.7,22.4,122,52.3l64.8,49.8v1158c0,709.7-10,1175.4-24.9,1205.3C4339.1,778.1,4224.5,808,4134.9,770.6z"/><path d="M4956.7,788c-32.4-5-79.7-37.4-107.1-72.2c-47.3-62.3-49.8-97.1-49.8-1180.4c0-764.5,7.5-1135.6,27.4-1175.4c54.8-122,214.2-151.9,308.8-54.8l62.3,59.8v1143c0,1100.7-2.5,1145.5-49.8,1205.3C5096.1,783.1,5043.8,803,4956.7,788z"/><path d="M5703.8,770.6c-39.8-17.4-82.2-49.8-92.1-74.7c-7.5-22.4-14.9-560.3-14.9-1195.3v-1155.5l64.7-49.8c37.4-29.9,92.1-52.3,122-52.3c29.9,0,84.7,22.4,122,52.3l64.8,49.8v1158c0,709.7-10,1175.4-24.9,1205.3C5908,778.1,5793.4,808,5703.8,770.6z"/></g></g>
</svg>